<svg width="2084" height="484" viewBox="0 0 2084 484" fill="none" xmlns="http://www.w3.org/2000/svg">
<g clip-path="url(#clip0_44_115)">
<path d="M1904.66 119.132C1888.52 119.132 1873.14 120.384 1858.79 122.716C1868.23 128.675 1876.31 135.75 1882.62 143.652L1882.98 144.103L1883.31 144.578C1883.8 145.304 1884.32 146.04 1884.86 146.819C1886.5 149.172 1888.34 151.817 1890.2 154.849C1921.98 162.911 1939.48 188.506 1939.48 228.585V280.231C1939.48 287.83 1933.66 292.768 1926.89 292.768C1925.54 292.768 1924.16 292.573 1922.78 292.165C1903.83 286.575 1881.11 282.621 1856.71 282.621C1781.17 282.621 1723.36 326.826 1723.36 385.065C1723.36 443.303 1770.65 484 1833.72 484C1866.52 484 1899.6 475.815 1921.95 457.081C1925.56 454.057 1929.97 452.224 1934.2 452.224C1938.44 452.224 1942.15 453.902 1945.02 457.821C1945.15 458.086 1945.28 458.349 1945.42 458.612C1949.53 466.653 1956.17 472.819 1964.46 476.983C1972.8 481.174 1982.8 483.335 1993.58 483.335C2004.36 483.335 2015.45 481.26 2026.66 476.983C2030.15 475.649 2033.64 474.101 2037.09 472.335C2064.35 458.389 2081.84 434.74 2083.76 412.648C2083.9 411.272 2084 255.957 2084 255.957C2084 178.072 2008.46 119.13 1904.66 119.13V119.132ZM1939.48 400.161C1939.48 401.969 1938.8 403.74 1937.59 405.277C1929.85 415.057 1919.36 420.354 1906.63 420.354C1884.96 420.354 1870.51 401.674 1870.51 374.692C1870.51 344.079 1888.9 325.918 1914.52 325.918C1921.93 325.918 1928.96 327.384 1934.51 330.315C1937.72 332.013 1939.48 334.958 1939.48 337.986V400.159L1939.48 400.161Z" fill="#FFAE00"/>
<path d="M1886.77 195.226C1884.84 172.784 1876.77 162.965 1870.28 153.497C1853.61 132.632 1821.73 118.956 1789.43 118.956C1765.29 118.956 1739.32 126.029 1721.68 142.276C1717.3 146.314 1713.16 148.521 1710.04 148.521C1709.11 148.521 1708.27 148.325 1707.55 147.922C1705.44 146.694 1704.74 145.467 1703.02 142.984C1697.97 135.711 1693.45 129.918 1686.2 125.802C1677.44 120.831 1666.61 118.259 1654.85 118.259C1641 118.259 1625.86 121.83 1611.34 129.261C1605.26 132.373 1599.67 135.967 1594.62 139.919C1577.05 153.683 1566.16 171.788 1564.67 188.953C1564.72 189.018 1564.76 189.081 1564.81 189.146C1572.24 199.731 1578.61 211.122 1583.73 223.001C1588.93 235.05 1592.92 247.749 1595.58 260.745C1598.3 273.988 1599.67 287.722 1599.67 301.566C1599.67 315.41 1598.3 329.144 1595.58 342.387C1592.92 355.383 1588.93 368.082 1583.73 380.131C1578.61 392.01 1572.24 403.401 1564.81 413.986C1564.74 414.088 1564.66 414.189 1564.59 414.291C1564.64 422.623 1564.74 440.747 1564.72 441.974C1565 447.715 1566.41 453.271 1569.06 458.435C1575.26 470.54 1587.17 478.4 1601.82 481.57C1606.69 482.624 1611.86 483.16 1617.22 483.16C1622.59 483.16 1628.03 482.636 1633.61 481.57C1642.59 479.855 1651.78 476.741 1660.73 472.158C1688.88 457.756 1706.62 433.004 1707.55 410.307C1707.55 410.307 1707.2 250.267 1707.19 248.973C1706.95 201.363 1750.92 160.386 1786.83 160.197C1787.21 160.195 1787.58 160.193 1787.93 160.193C1794.39 160.193 1798.19 160.519 1803.79 161.385C1798.44 163.081 1796.03 164.985 1790.75 167.687C1753.71 186.639 1734.7 223.509 1748.29 250.041C1756.55 266.171 1774.96 274.766 1796.45 274.766C1810.31 274.766 1825.44 271.195 1839.96 263.764C1867.81 249.515 1885.47 225.136 1886.74 202.638C1886.85 199.468 1886.85 197.89 1886.77 195.225V195.226Z" fill="#FFAE00"/>
<path d="M1082.87 483.825C1178.2 483.825 1229.29 436.111 1229.29 365.945C1229.29 284.552 1155.77 257.887 1107.79 233.33C1084.23 221.763 1067.11 214.054 1055.72 205.455C1046.43 198.126 1042.33 192.582 1042.85 185.431C1044.14 167.906 1065.52 160.048 1096.78 160.046H1096.79C1101.87 160.046 1107.21 160.253 1112.77 160.661C1119.12 161.126 1125.54 161.738 1132.56 162.965C1142.94 165.009 1148.11 167.618 1153.62 171.802C1153.55 171.835 1153.48 171.867 1153.42 171.9C1130.48 183.639 1118.7 206.479 1127.12 222.913C1132.24 232.905 1143.64 238.229 1156.95 238.229C1165.54 238.229 1174.91 236.016 1183.91 231.413C1200.15 223.104 1210.71 210.202 1212.56 196.98C1212.56 196.98 1213.1 191.034 1213.1 188.422C1212.47 149.128 1157.64 118.956 1085.98 118.956C998.128 118.956 942.049 163.161 942.049 234.732C942.049 319.634 1026.17 349.104 1062.93 369.453C1088.94 383.913 1107.12 394.454 1118.48 404.078C1121.86 408.349 1123.33 412.508 1123 416.951C1121.71 434.475 1100.33 442.336 1069.07 442.336C1063.99 442.336 1058.65 442.129 1053.08 441.72C1042.53 440.947 1032.42 440.104 1023.25 437.707C1015.89 435.783 1009.75 433.855 1001.86 429.296C1001.91 429.224 1001.96 429.154 1002.01 429.084C1024.82 417.314 1036.5 394.563 1028.1 378.178C1022.99 368.185 1011.58 362.862 998.268 362.862C989.686 362.862 980.31 365.075 971.316 369.678C951.105 380.019 939.563 398.972 942.854 414.573C950.244 453.613 1007.52 483.825 1082.87 483.825H1082.87Z" fill="#FFAE00"/>
<path d="M1390.49 119.132C1292.13 119.132 1215.62 181.945 1200.51 269.462C1201.91 270.685 1203.29 271.915 1204.62 273.157C1210.64 278.767 1216.05 284.72 1220.69 290.851C1225.78 297.565 1230.12 304.724 1233.6 312.126C1237.33 320.041 1240.18 328.471 1242.09 337.185C1244.08 346.29 1245.09 355.965 1245.09 365.943C1245.09 383.245 1242.28 399.456 1236.75 414.23C1271.33 457.202 1326.25 483.998 1390.49 483.998C1501.19 483.998 1583.88 405.41 1583.88 301.564C1583.88 197.718 1501.19 119.13 1390.49 119.13L1390.49 119.132ZM1390.1 442.797C1359.03 442.797 1343 391.14 1343 301.391C1343 211.641 1359.73 160.16 1390.8 160.16C1421.88 160.16 1438.66 211.641 1438.66 301.391C1438.66 391.14 1421.17 442.797 1390.1 442.797Z" fill="#FFAE00"/>
<path d="M456.765 458.612C465.028 474.742 483.442 483.337 504.93 483.337C518.786 483.337 533.92 479.766 548.441 472.335C585.481 453.383 603.923 416.795 590.901 389.981C590.001 388.13 414.035 26.5928 414.035 26.5928C414.035 26.5928 413.305 24.9411 413.195 24.7255C404.931 8.59483 386.519 0 365.03 0C351.173 0 336.04 3.57154 321.519 11.0022C287.259 28.532 272.633 60.2567 276.545 87.2177L303.607 272.383L244.045 149.924L243.508 148.8C242.455 146.521 242.136 145.397 240.992 143.161C232.729 127.031 214.317 118.436 192.827 118.436C178.971 118.436 163.838 122.007 149.317 129.438C118.98 144.958 100.739 172.5 102.595 196.536H102.581L102.153 366.169C98.3637 365.564 94.4163 365.257 90.3602 365.257C76.504 365.257 61.3706 368.829 46.8495 376.26C9.80904 395.211 -9.20156 432.082 4.38972 458.614C12.6529 474.744 31.0652 483.339 52.5548 483.339C66.411 483.339 81.5444 479.767 96.0655 472.337C125.59 457.23 143.659 430.737 142.892 407.173L143.195 287.066L220.173 447.569C222.98 453.18 225.183 456.664 226.183 458.614C234.447 474.744 252.859 483.339 274.349 483.339C288.205 483.339 303.338 479.767 317.859 472.337C351.744 455 367.542 423.023 363.091 396.973L361.401 385.151L335.577 208.704L453.507 453.005C454.735 455.284 455.851 456.834 456.761 458.614L456.765 458.612Z" fill="#FFAE00"/>
<path d="M922.508 142.984C918.766 135.678 912.942 129.92 905.692 125.805C896.936 120.833 886.099 118.26 874.341 118.26C860.485 118.26 845.352 121.834 830.832 129.263C824.943 132.277 819.51 135.743 814.59 139.549C794.788 154.87 783.325 175.689 784.013 194.599C784.036 196.843 783.971 360.774 783.971 360.774C783.971 362.359 783.704 363.948 783.164 365.427C773.327 392.281 757.96 410.877 743.295 410.877C730.188 410.877 718.827 396.847 718.827 377.906C718.827 377.906 718.595 163.707 718.641 158.594C718.265 153.159 716.869 147.897 714.355 142.989C710.63 135.72 704.846 129.981 697.648 125.87C688.872 120.859 677.993 118.264 666.188 118.264C652.332 118.264 637.198 121.835 622.677 129.266C616.739 132.305 611.263 135.804 606.312 139.648C589.061 153.038 578.168 170.604 576.165 187.424C576.149 202.284 576.112 271.984 576.086 321.051C576.086 321.051 607.1 384.655 607.284 385.014C609.4 389.143 610.932 393.561 611.839 398.148C612.711 402.561 613.011 407.166 612.73 411.835C612.195 420.754 609.604 429.775 605.028 438.647C603.847 440.936 602.546 443.186 601.133 445.395C620.512 469.432 649.416 483.828 681.693 483.828C713.971 483.828 741.13 470.824 762.874 449.333C765.688 446.552 769.248 444.978 772.838 444.978C778.25 444.978 783.732 448.555 786.836 456.965C787.122 457.488 787.427 458.002 787.745 458.508C793.227 468.653 802.799 475.721 814.622 479.431C821.559 481.899 829.35 483.164 837.59 483.164C848.15 483.164 859.45 481.089 870.657 476.813C870.657 476.813 876.543 474.234 879.996 472.467C909.505 457.369 927.619 430.594 926.873 407.038C926.873 407.038 926.887 407.038 926.894 407.038C926.898 407.038 926.903 407.038 926.906 407.038V164.289C926.838 161.249 926.32 150.438 922.503 142.984H922.508Z" fill="#FFAE00"/>
</g>
<defs>
<clipPath id="clip0_44_115">
<rect width="2084" height="484" fill="white"/>
</clipPath>
</defs>
</svg>
