<svg width="200" height="200" viewBox="0 0 200 200" fill="none" xmlns="http://www.w3.org/2000/svg">
<rect width="200" height="200" fill="black"/>
<path fill-rule="evenodd" clip-rule="evenodd" d="M18 89.804C18 114.482 18.013 114.634 20.588 119.801C28.923 136.528 50.903 140.192 64.048 127.048C76.539 114.557 73.866 93.675 58.664 84.993C49.292 79.64 40.039 79.798 30.619 85.47L25 88.854V76.927V65H21.5H18V89.804ZM129 100V135H132.5H136V100V65H132.5H129V100ZM140 100V135H143.5H147V126C147 121.05 147.243 117 147.54 117C147.837 117 153.223 121.073 159.51 126.051L170.941 135.102L176.531 134.801L182.121 134.5L167.069 122.613C158.79 116.075 151.549 110.161 150.977 109.472C150.193 108.528 153.76 105.173 165.445 95.86L180.953 83.5L175.467 83.2L169.981 82.9L159.12 91.45C153.147 96.152 147.976 100 147.63 100C147.283 100 147 92.125 147 82.5V65H143.5H140V100ZM93.358 82.031C82.858 85.274 74 96.886 74 107.409C74 130.249 99.609 143.214 117.607 129.486C120.815 127.04 127 118.753 127 116.902C127 116.353 121.685 114 120.446 114C120.305 114 119.029 115.981 117.61 118.403C114.832 123.143 106.946 128.005 102.054 127.994C95.481 127.98 84.771 122.261 87.584 120.268C88.18 119.846 96.843 114.379 106.834 108.119C116.825 101.86 125 96.225 125 95.597C125 93.287 119.064 87.353 113.992 84.592C108.236 81.459 98.944 80.306 93.358 82.031ZM53.744 90.739C60.912 94.016 65.904 103.367 64.496 110.875C63.546 115.935 61.624 119.245 57.564 122.809C47.978 131.227 33.316 128.295 27.597 116.818C23.537 108.672 24.604 101.491 30.871 94.772C36.743 88.478 45.445 86.943 53.744 90.739ZM109.946 90.862C111.841 91.763 113.551 93.018 113.746 93.652C114.176 95.047 83.237 114.571 82.218 113.548C80.929 112.253 81.708 102.466 83.353 99.285C85.627 94.887 91.712 90.187 96.456 89.165C101.262 88.129 105.254 88.631 109.946 90.862Z" fill="white"/>
</svg>
