<svg width="376" height="376" viewBox="0 0 376 376" fill="none" xmlns="http://www.w3.org/2000/svg">
<rect width="376" height="376" fill="black"/>
<path d="M259.179 285.847C262.872 293.123 271.104 296.999 280.709 296.999C286.903 296.999 293.668 295.388 300.159 292.037C316.716 283.489 324.96 266.987 319.138 254.893C318.736 254.058 240.078 90.9941 240.078 90.9941C240.078 90.9941 239.752 90.2492 239.702 90.1519C236.009 82.8765 227.778 79 218.172 79C211.978 79 205.214 80.6109 198.723 83.9623C183.408 91.8687 176.87 106.178 178.619 118.338L190.716 201.853L164.091 146.62L163.851 146.113C163.381 145.085 163.238 144.578 162.726 143.57C159.033 136.295 150.802 132.418 141.196 132.418C135.002 132.418 128.238 134.029 121.747 137.38C108.186 144.38 100.032 156.802 100.862 167.644H100.856L100.664 244.153C98.9703 243.88 97.2058 243.742 95.3926 243.742C89.1988 243.742 82.4341 245.353 75.943 248.704C59.3856 257.252 50.8877 273.882 56.9631 285.848C60.6568 293.123 68.8873 297 78.4933 297C84.6872 297 91.4519 295.389 97.943 292.038C111.141 285.224 119.218 273.275 118.875 262.647L119.01 208.475L153.42 280.867C154.675 283.397 155.66 284.969 156.107 285.848C159.801 293.123 168.031 297 177.637 297C183.831 297 190.596 295.389 197.087 292.038C212.233 284.218 219.295 269.796 217.306 258.047L216.55 252.714L205.007 173.132L257.722 283.318C258.271 284.346 258.77 285.045 259.177 285.848L259.179 285.847Z" fill="#FFAE00"/>
</svg>
