<svg width="1000" height="1000" viewBox="0 0 1000 1000" fill="none" xmlns="http://www.w3.org/2000/svg">
<path fill-rule="evenodd" clip-rule="evenodd" d="M489.201 1.1331C486.285 1.9541 482.91 3.1501 481.701 3.7931C475.928 6.8601 15.1145 313.179 12.4775 315.702C10.8135 317.294 8.01954 320.969 6.26954 323.868C-0.359464 334.85 0.00353684 324.678 0.00353684 499.639C0.00353684 674.6 -0.359464 664.428 6.26954 675.41C8.01954 678.309 10.8135 681.984 12.4775 683.576C17.3585 688.246 480.009 994.813 485.504 997.019C492.531 999.839 507.477 999.839 514.504 997.019C519.999 994.813 982.649 688.246 987.53 683.576C989.194 681.984 991.988 678.309 993.738 675.41C1000.37 664.428 1000 674.6 1000 499.639C1000 324.678 1000.37 334.85 993.738 323.868C991.988 320.969 989.194 317.294 987.53 315.702C982.45 310.842 519.856 4.4011 514.504 2.3511C507.828 -0.206905 495.99 -0.776905 489.201 1.1331ZM459.004 221.017C459.004 309.403 458.814 322.552 457.521 323.625C456.705 324.302 414.367 352.893 363.437 387.16L270.836 449.464L235.17 425.469C215.554 412.272 180.954 389.024 158.281 373.807C135.609 358.589 117.073 345.914 117.091 345.639C117.14 344.905 457.045 119.639 458.105 119.639C458.631 119.639 459.004 161.675 459.004 221.017ZM713.693 232.953C806.747 294.655 882.898 345.364 882.916 345.639C882.935 345.914 864.399 358.589 841.727 373.807C819.054 389.024 784.454 412.272 764.838 425.469L729.172 449.464L636.571 387.16C585.641 352.893 543.303 324.302 542.487 323.625C541.194 322.552 541.004 309.39 541.004 220.91C541.004 124.669 541.094 119.46 542.754 120.096C543.716 120.464 620.639 171.25 713.693 232.953ZM577.377 447.639C619.493 475.964 653.954 499.364 653.955 499.639C653.957 499.914 619.318 523.431 576.981 551.899L500.004 603.659L423.027 551.899C380.69 523.431 346.052 499.914 346.054 499.639C346.059 498.909 499.385 395.751 500.152 395.961C500.509 396.059 535.26 419.314 577.377 447.639ZM194.504 499.639C194.504 500.322 169.417 517.723 138.754 538.306L83.0035 575.731V499.639V423.547L138.754 460.972C169.417 481.555 194.504 498.956 194.504 499.639ZM917.004 499.685V575.731L861.254 538.306C830.591 517.723 805.504 500.323 805.504 499.639C805.504 498.746 914.913 424.051 916.754 423.688C916.892 423.661 917.004 457.86 917.004 499.685ZM362.504 611.462C412.004 644.718 453.966 673.01 455.754 674.334L459.004 676.741V778.297C459.004 874.606 458.914 879.818 457.254 879.182C454.981 878.312 117.134 654.297 117.1 653.639C117.046 652.552 270.569 549.967 271.504 550.465C272.054 550.757 313.004 578.206 362.504 611.462ZM839.732 624.139C863.499 640.089 882.93 653.364 882.913 653.639C882.872 654.3 545.018 878.315 542.754 879.182C541.094 879.818 541.004 874.609 541.004 778.368C541.004 689.888 541.194 676.726 542.487 675.653C543.303 674.976 585.636 646.388 636.56 612.125L729.15 549.829L762.835 572.484C781.361 584.944 815.965 608.189 839.732 624.139Z" fill="black"/>
</svg>
