<svg width="711" height="488" viewBox="0 0 711 488" fill="none" xmlns="http://www.w3.org/2000/svg">
<path fill-rule="evenodd" clip-rule="evenodd" d="M692.283 3.11023C689.501 4.85349 684.78 8.06515 681.792 10.2462C672.025 17.3762 663.997 22.598 661.663 23.3377C660.403 23.7375 657.695 25.123 655.646 26.4174C653.596 27.7119 651.326 28.7704 650.6 28.7704C649.875 28.7704 648.854 29.1752 648.332 29.67C647.81 30.1648 643.849 32.4399 639.529 34.7259C635.21 37.0109 630.039 39.9007 628.039 41.1462C626.039 42.3917 623.557 43.7231 622.522 44.1059C621.489 44.4888 616.448 47.2716 611.321 50.2904C606.193 53.3091 600.97 56.2118 599.712 56.7406C598.455 57.2694 595.178 59.0437 592.43 60.684C589.683 62.3243 584.737 65.0301 581.44 66.6964C578.142 68.3627 574.77 70.106 573.946 70.5708C573.122 71.0356 570.874 72.2081 568.95 73.1777C567.027 74.1463 564.104 75.6357 562.456 76.4873C560.807 77.339 558.559 78.4975 557.46 79.0632C556.361 79.628 552.539 81.6491 548.967 83.5543C545.395 85.4585 540.674 87.8915 538.476 88.96C536.278 90.0286 533.805 91.3231 532.981 91.8368C532.157 92.3506 528.785 94.1259 525.487 95.7812C522.19 97.4375 518.818 99.1548 517.994 99.5976C517.169 100.04 514.921 101.196 512.998 102.165C511.075 103.134 508.377 104.518 507.003 105.242C498.986 109.464 472.923 122.332 468.536 124.234C466.338 125.187 462.966 126.679 461.042 127.549C459.119 128.419 457.096 129.177 456.546 129.234C455.997 129.291 454.198 129.907 452.55 130.603C450.901 131.298 449.552 131.76 449.552 131.628C449.552 131.497 448.428 132.012 447.054 132.773C445.68 133.533 444.332 134.21 444.057 134.277C443.782 134.344 442.77 134.697 441.809 135.062C440.847 135.426 439.273 136.024 438.312 136.389C437.35 136.754 436.338 137.13 436.064 137.225C435.789 137.32 434.777 137.696 433.816 138.06C432.854 138.425 431.28 139.023 430.319 139.388C429.357 139.753 428.345 140.128 428.071 140.223C426.447 140.784 423.164 142.119 420.426 143.329C418.695 144.095 416.408 144.722 415.347 144.722C414.285 144.722 413.079 145.058 412.667 145.471C412.255 145.884 411.618 146.26 411.252 146.307C410.885 146.355 409.686 146.735 408.587 147.151C403.72 148.995 401.459 149.725 399.595 150.06C398.496 150.257 396.922 150.691 396.098 151.024C391.813 152.754 380.692 155.327 374.117 156.109C369.664 156.639 369.591 156.599 366.623 151.977C364.974 149.412 362.843 146.167 361.888 144.767C360.933 143.367 359.843 141.548 359.465 140.723C359.088 139.899 358.184 138.864 357.456 138.424C356.727 137.984 356.132 137.126 356.132 136.515C356.132 135.388 350.305 129.728 349.146 129.728C348.799 129.728 347.644 128.937 346.579 127.971C341.687 123.533 334.613 121.137 331.639 122.909C331.097 123.232 329.212 123.804 327.449 124.182C325.687 124.561 322.449 125.739 320.254 126.799C318.058 127.861 315.903 128.732 315.465 128.737C314.22 128.751 309.997 134.412 306.338 140.972C303.941 145.272 303.31 147.253 304.09 148.034C304.687 148.631 305.175 150.093 305.175 151.284C305.175 152.474 306.075 154.591 307.174 155.99C308.273 157.387 309.172 158.975 309.172 159.516C309.172 160.058 309.846 160.76 310.671 161.077C311.495 161.393 312.17 162.247 312.17 162.975C312.17 164.462 320.226 173.709 321.522 173.709C321.982 173.709 323.776 174.34 325.507 175.11C327.239 175.88 330.004 176.931 331.653 177.446C336.965 179.104 370.157 177.977 373.388 176.029C374.276 175.494 377.287 182.007 377.86 185.704C378.073 187.079 379.092 191.827 380.124 196.255C382.867 208.024 383.554 213.302 383.431 221.689C383.328 228.742 383.035 232.427 381.465 246.429C380.475 255.264 380.685 257.856 382.472 258.856C383.372 259.36 384.108 260.183 384.108 260.685C384.108 261.912 391.424 272.641 392.272 272.656C393.418 272.677 393.944 269.056 395.755 248.678C396.919 235.581 396.53 228.182 394.101 217.191C393.615 214.992 392.967 211.955 392.659 210.444C391.956 206.979 390.988 202.502 390.66 201.198C390.523 200.648 389.935 199.047 389.355 197.64C388.774 196.234 387.711 193.085 386.992 190.643C386.273 188.201 384.46 183.851 382.962 180.976C381.464 178.1 380.547 175.557 380.925 175.324C381.301 175.091 383.978 174.637 386.872 174.314C392.248 173.715 404.399 170.749 409.337 168.829C410.847 168.242 412.084 167.959 412.084 168.201C412.084 168.443 414.109 167.772 416.585 166.71C419.06 165.649 422.095 164.609 423.33 164.4C424.564 164.191 426.472 163.66 427.571 163.218C428.67 162.776 433.616 160.871 438.562 158.984C443.507 157.096 448.971 154.915 450.702 154.136C452.434 153.356 454.543 152.718 455.389 152.718C456.235 152.718 457.185 152.303 457.497 151.796C457.811 151.288 459.442 150.571 461.121 150.202C462.801 149.833 465.381 148.902 466.854 148.132C468.329 147.362 470.233 146.731 471.084 146.727C471.936 146.724 473.167 146.186 473.821 145.531C474.475 144.877 475.689 144.203 476.519 144.032C477.348 143.862 478.707 143.582 479.537 143.412C480.367 143.241 481.581 142.566 482.234 141.913C482.889 141.258 483.917 140.723 484.52 140.723C485.123 140.723 489.867 138.438 495.061 135.644C500.255 132.852 505.054 130.466 505.725 130.343C506.397 130.22 507.289 129.776 507.708 129.356C508.127 128.936 511.176 127.28 514.481 125.676C517.787 124.071 521.166 122.378 521.99 121.913C522.815 121.448 525.063 120.276 526.986 119.306C528.909 118.338 531.607 116.979 532.981 116.288C536.119 114.707 541.998 111.643 543.972 110.56C544.796 110.107 546.594 109.252 547.968 108.659C549.342 108.066 553.613 105.85 557.46 103.734C561.307 101.619 567.215 98.542 570.588 96.8987C573.962 95.2544 577.023 93.4222 577.391 92.8264C577.76 92.2317 578.771 91.7439 579.639 91.7439C580.508 91.7439 583.411 90.3944 586.09 88.7451C588.769 87.0958 591.413 85.7464 591.966 85.7464C592.518 85.7464 594.829 84.5719 597.102 83.1365C602.544 79.7 613.912 73.8894 613.912 74.5451C613.912 74.829 612.226 76.7112 610.165 78.7284C608.105 80.7455 605.069 84.0031 603.421 85.9673C601.772 87.9315 597.501 92.7255 593.929 96.6208C590.357 100.517 586.086 105.301 584.437 107.252C582.788 109.204 579.191 113.166 576.444 116.059C573.696 118.951 569.425 123.743 566.952 126.708C564.479 129.673 561.557 133.089 560.457 134.302C554.492 140.881 552.964 142.799 552.964 143.713C552.964 144.268 552.61 144.722 552.178 144.722C551.746 144.722 549.647 147.084 547.513 149.969C545.378 152.855 543.034 155.577 542.304 156.017C541.573 156.457 540.974 157.262 540.974 157.808C540.974 158.354 540.517 159.343 539.956 160.007C539.396 160.671 538.016 162.339 536.889 163.714C535.761 165.088 533.745 167.446 532.41 168.952C531.076 170.46 529.984 172.062 529.984 172.514C529.984 172.966 528.635 174.628 526.986 176.208C525.337 177.789 523.989 179.634 523.989 180.311C523.989 180.986 523.588 181.689 523.097 181.873C522.323 182.162 515.813 190.439 509.501 199.159C508.402 200.677 507.028 202.431 506.448 203.058C505.867 203.684 505.095 204.984 504.73 205.946C504.366 206.907 503.605 207.695 503.038 207.695C502.471 207.695 502.007 208.177 502.007 208.766C502.007 209.355 501.446 210.425 500.758 211.143C500.072 211.86 498.835 213.445 498.011 214.663C496.611 216.731 494.422 219.564 492.035 222.397C491.474 223.061 491.017 224.024 491.017 224.539C491.017 225.053 490.342 225.732 489.518 226.049C488.694 226.365 488.019 227.107 488.019 227.698C488.019 228.707 487.25 229.827 484.273 233.147C483.586 233.914 483.024 235.022 483.024 235.612C483.024 236.201 482.574 236.683 482.024 236.683C481.475 236.683 481.025 237.372 481.025 238.213C481.025 239.056 480.351 240.003 479.527 240.319C478.702 240.636 478.028 241.367 478.028 241.944C478.028 242.519 476.904 244.466 475.53 246.268C474.156 248.07 473.032 249.831 473.032 250.182C473.032 250.533 472.471 251.447 471.783 252.213C468.818 255.521 468.036 256.651 468.036 257.632C468.036 258.205 467.587 258.674 467.037 258.674C466.488 258.674 466.038 259.11 466.038 259.644C466.038 260.791 459.881 270.019 458.794 270.502C458.382 270.685 458.045 271.279 458.045 271.823C458.045 272.366 457.483 273.437 456.796 274.204C454.48 276.787 453.557 278.151 451.573 281.914C450.486 283.976 449.25 285.662 448.826 285.662C448.401 285.662 448.053 286.337 448.053 287.162C448.053 287.986 447.711 288.661 447.291 288.661C446.528 288.661 444.723 291.623 443.484 294.908C443.122 295.87 442.427 296.658 441.942 296.658C441.457 296.658 441.059 297.332 441.059 298.157C441.059 298.982 440.61 299.656 440.06 299.656C439.511 299.656 439.061 300.122 439.061 300.692C439.061 301.262 436.363 305.968 433.066 311.151C429.769 316.335 427.071 321.041 427.071 321.611C427.071 322.181 426.622 322.647 426.072 322.647C425.523 322.647 425.073 323.126 425.073 323.713C425.073 324.299 423.949 326.253 422.575 328.055C421.201 329.858 420.077 331.852 420.077 332.486C420.077 333.122 419.738 333.642 419.322 333.642C418.906 333.642 417.948 335.04 417.192 336.75C416.325 338.709 413.558 341.282 409.704 343.711C406.342 345.831 402.528 348.369 401.228 349.35C398.726 351.24 390.624 356.141 388.105 357.289C387.28 357.664 384.358 359.384 381.61 361.111C378.863 362.838 375.94 364.566 375.116 364.951C374.291 365.336 372.268 366.514 370.62 367.571C360.895 373.799 358.353 374.351 357.768 370.358C357.644 369.517 357.108 368.221 356.578 367.479C356.046 366.736 354.751 364.554 353.699 362.63C352.647 360.706 349.729 356.063 347.215 352.314C342.088 344.667 341.964 344.466 337.247 336.141C335.379 332.842 332.681 328.576 331.252 326.661C328.229 322.606 326.645 320.038 325.216 316.873C324.652 315.623 323.508 314.337 322.676 314.017C321.843 313.698 321.162 312.81 321.162 312.044C321.162 311.278 320.761 310.652 320.271 310.652C319.781 310.652 319.121 309.64 318.804 308.403C318.486 307.165 317.088 304.936 315.698 303.449C314.307 301.96 313.169 300.488 313.169 300.176C313.169 299.864 310.808 296.227 307.923 292.092C305.039 287.957 302.228 283.807 301.678 282.869C301.129 281.932 298.544 278.362 295.933 274.938C293.324 271.514 291.187 268.477 291.187 268.19C291.187 267.905 290.401 266.828 289.439 265.798C288.478 264.77 286.117 261.983 284.193 259.607C282.27 257.23 279.91 254.474 278.948 253.482C277.987 252.489 277.199 251.458 277.199 251.191C277.199 250.741 258.797 232.496 255.97 230.143C250.882 225.906 237.009 216.117 233.737 214.455C231.538 213.339 229.515 212.126 229.24 211.762C228.966 211.397 226.043 209.855 222.746 208.334C219.449 206.812 216.062 205.204 215.219 204.759C214.377 204.314 212.129 203.625 210.224 203.226C208.318 202.827 205.86 201.944 204.761 201.266C202.467 199.847 189.244 196.397 188.594 197.047C188.356 197.285 185.826 196.901 182.973 196.193C176.667 194.629 177.537 194.707 162.636 194.345C152.528 194.1 148.917 194.444 141.155 196.397C136.022 197.687 131.275 198.871 130.604 199.026C129.932 199.181 129.071 199.62 128.688 200.002C128.307 200.385 127.349 200.698 126.562 200.698C125.776 200.698 123.714 201.325 121.983 202.09C119.097 203.367 115.572 204.792 114.338 205.181C112.387 205.797 107.35 208.437 104.868 210.145C101.391 212.537 99.7969 213.524 95.3297 216.047C93.5232 217.068 91.1043 218.788 89.9533 219.869C88.8023 220.95 86.5972 222.814 85.0515 224.011C83.5068 225.208 80.4714 227.875 78.3062 229.936C76.1411 231.998 73.952 233.684 73.4394 233.684C72.9278 233.684 72.2234 234.584 71.8747 235.683C71.526 236.783 70.8846 237.682 70.4499 237.682C69.5117 237.682 59.1586 248.04 54.8892 253.25C53.2406 255.262 49.7686 259.216 47.1728 262.039C44.577 264.861 42.4419 267.684 42.4269 268.312C42.4119 268.941 41.7255 269.714 40.9012 270.031C40.0769 270.347 39.4025 271.101 39.4025 271.708C39.4025 272.315 38.8409 273.437 38.1535 274.204C35.1881 277.512 34.4067 278.642 34.4067 279.623C34.4067 280.195 34.029 280.664 33.5684 280.664C33.1068 280.664 31.8709 282.458 30.8208 284.652C29.7707 286.844 28.5747 288.643 28.1621 288.65C27.7494 288.656 27.4127 289.336 27.4127 290.16C27.4127 290.985 26.9631 291.66 26.4136 291.66C25.864 291.66 25.4144 292.047 25.4144 292.521C25.4144 292.994 23.6159 296.656 21.4178 300.656C19.2197 304.656 17.4212 308.542 17.4212 309.29C17.4212 310.039 17.0815 310.652 16.6659 310.652C16.2502 310.652 15.306 312.114 14.5667 313.9C13.8283 315.687 12.5944 318.566 11.825 320.299C11.0567 322.031 10.4272 324.168 10.4272 325.047C10.4272 325.926 10.0305 326.645 9.54696 326.645C9.06237 326.645 8.13016 328.776 7.47472 331.38C6.81928 333.984 5.93104 336.57 5.50141 337.127C4.48328 338.448 2.21522 347.751 2.77574 348.311C3.01253 348.548 2.45601 351.754 1.5378 355.436C-0.906117 365.238 -0.308627 392.719 2.42204 396.116C2.86366 396.665 3.69495 398.689 4.26746 400.614C6.40464 407.784 8.25306 412.05 9.38809 412.429C10.0305 412.643 10.9837 413.783 11.5053 414.963C12.5514 417.323 13.6724 419.089 20.6375 429.337C27.8283 439.917 41.7495 453.591 45.3304 453.591C45.9169 453.591 46.3965 453.983 46.3965 454.462C46.3965 456.94 80.4144 468.236 88.3607 468.397C89.185 468.413 91.8826 468.706 94.3555 469.046C96.8284 469.386 100.875 469.942 103.348 470.281C109.636 471.143 132.156 471.049 142.315 470.118C146.986 469.691 152.606 469.19 154.804 469.006C159.838 468.584 163.591 467.993 169.292 466.725C171.764 466.174 175.811 465.435 178.284 465.082C190.028 463.408 228.667 452.981 238.233 448.905C239.057 448.553 239.956 448.205 240.231 448.129C240.506 448.054 243.428 447.147 246.725 446.116C250.023 445.083 252.945 444.199 253.22 444.151C253.495 444.104 254.169 443.794 254.719 443.464C255.268 443.133 258.191 442.065 261.213 441.091C264.235 440.116 268.507 438.537 270.705 437.58C272.903 436.623 277.174 434.862 280.197 433.667C286.208 431.29 287.939 430.571 293.201 428.269C297.907 426.209 301.569 424.832 302.178 424.892C302.453 424.919 303.802 424.319 305.175 423.558C306.549 422.797 307.898 422.121 308.173 422.054C311.152 421.328 327.892 413.597 352.385 401.636C355.545 400.093 358.188 399.119 358.259 399.472C358.33 399.825 358.488 401.238 358.611 402.613C358.733 403.987 359.215 407.811 359.683 411.109C361.042 420.696 360.662 456.565 359.164 460.089C356.86 465.511 356.833 471.286 359.102 473.556C360.216 474.67 361.128 475.817 361.128 476.103C361.128 477.551 368.383 487.577 369.431 487.577C370.127 487.577 372.233 478.61 372.704 473.64C372.936 471.197 373.516 468.948 373.995 468.642C374.473 468.336 375.198 466.55 375.605 464.673C376.013 462.795 377.643 458.367 379.228 454.833C380.813 451.299 382.11 447.775 382.11 447.001C382.11 446.227 382.559 445.595 383.109 445.595C383.658 445.595 384.111 444.807 384.114 443.845C384.118 442.884 384.793 440.808 385.613 439.233C386.434 437.658 387.106 435.747 387.106 434.985C387.106 434.224 387.519 433.6 388.026 433.6C388.531 433.6 389.24 432.255 389.6 430.612C389.961 428.97 390.671 427.368 391.179 427.055C391.687 426.742 392.101 425.612 392.101 424.545C392.101 423.477 392.551 422.604 393.1 422.604C393.65 422.604 394.1 421.957 394.1 421.164C394.1 420.372 395.898 415.847 398.096 411.109C400.294 406.371 402.093 402.309 402.093 402.083C402.093 401.856 404.116 398.247 406.589 394.062C409.062 389.878 411.085 386.042 411.085 385.537C411.085 385.033 411.535 384.62 412.084 384.62C412.634 384.62 413.083 383.721 413.083 382.621C413.083 381.522 413.533 380.622 414.082 380.622C414.632 380.622 415.082 379.947 415.082 379.123C415.082 378.298 415.418 377.619 415.831 377.615C416.244 377.611 417.063 376.599 417.652 375.366C420.528 369.359 424.552 362.63 425.269 362.63C425.711 362.63 426.072 361.778 426.072 360.737C426.072 359.697 426.782 358.572 427.65 358.24C428.517 357.907 431.703 355.947 434.729 353.884C437.755 351.822 441.285 349.46 442.574 348.636C445.027 347.066 458.097 338.064 468.835 330.55C472.297 328.127 475.85 325.695 476.731 325.145C479.373 323.497 491.012 314.704 502.86 305.404C508.989 300.594 514.204 296.658 514.45 296.658C514.695 296.658 513.935 298.457 512.762 300.656C511.589 302.855 510.262 304.654 509.815 304.654C509.368 304.654 509.001 305.067 509.001 305.571C509.001 306.076 506.978 309.912 504.505 314.096C502.032 318.28 500.009 322.142 500.009 322.676C500.009 323.209 499.559 323.646 499.01 323.646C498.46 323.646 498.011 324.546 498.011 325.645C498.011 326.745 497.645 327.644 497.199 327.644C496.751 327.644 495.768 329.219 495.013 331.143C494.259 333.067 493.276 334.641 492.828 334.641C492.382 334.641 492.016 335.541 492.016 336.641C492.016 337.74 491.566 338.64 491.017 338.64C490.467 338.64 490.018 339.282 490.018 340.066C490.018 340.851 488.444 344.513 486.521 348.205C484.597 351.897 483.024 355.528 483.024 356.274C483.024 357.021 482.574 357.632 482.024 357.632C481.475 357.632 481.025 358.531 481.025 359.631C481.025 360.73 480.576 361.63 480.026 361.63C479.477 361.63 479.013 362.418 478.995 363.379C478.978 364.341 478.304 366.002 477.496 367.069C476.69 368.136 476.03 369.823 476.03 370.817C476.03 371.812 475.58 372.625 475.03 372.625C474.481 372.625 474.031 373.216 474.031 373.938C474.031 374.66 472.964 377.47 471.66 380.185C470.356 382.899 468.972 386.582 468.583 388.369C468.195 390.156 467.514 391.617 467.069 391.617C466.625 391.617 465.948 393.305 465.567 395.366C465.186 397.428 464.272 400.464 463.537 402.113C462.802 403.762 461.909 406.236 461.553 407.611C461.196 408.985 460.303 411.459 459.567 413.108C458.831 414.758 457.451 418.131 456.501 420.605C455.551 423.079 453.936 427.011 452.912 429.341C450.716 434.341 450.583 436.212 452.35 437.298C453.064 437.738 454.913 440.288 456.458 442.966C461.207 451.191 464.04 453.667 464.04 449.593C464.04 448.494 464.489 447.594 465.039 447.594C465.588 447.594 466.038 446.694 466.038 445.595C466.038 444.495 466.452 443.596 466.958 443.596C467.464 443.596 468.195 442.148 468.584 440.38C468.972 438.611 469.679 436.475 470.155 435.632C471.256 433.682 473.855 426.283 475.259 421.105C475.856 418.906 476.948 416.219 477.685 415.135C478.424 414.051 479.03 412.477 479.033 411.636C479.037 410.796 479.694 408.853 480.495 407.319C481.295 405.784 482.241 402.973 482.598 401.072C482.955 399.17 483.646 397.615 484.134 397.615C484.622 397.615 485.022 396.715 485.022 395.616C485.022 394.516 485.436 393.617 485.942 393.617C486.448 393.617 487.156 392.272 487.517 390.629C487.877 388.987 488.588 387.385 489.095 387.071C489.603 386.759 490.018 385.629 490.018 384.561C490.018 383.494 490.467 382.621 491.017 382.621C491.566 382.621 492.016 381.98 492.016 381.195C492.016 380.41 493.59 376.748 495.513 373.056C497.436 369.364 499.01 365.733 499.01 364.987C499.01 364.24 499.46 363.629 500.009 363.629C500.559 363.629 501.008 362.73 501.008 361.63C501.008 360.531 501.458 359.631 502.007 359.631C502.557 359.631 503.007 359.018 503.007 358.27C503.007 357.522 504.805 353.635 507.003 349.635C509.201 345.635 511 341.973 511 341.501C511 341.027 511.365 340.639 511.812 340.639C512.26 340.639 513.243 339.065 513.997 337.14C514.752 335.216 515.625 333.642 515.938 333.642C516.251 333.642 517.129 332.181 517.892 330.393C518.653 328.607 520.337 325.713 521.633 323.963C522.929 322.213 523.989 320.534 523.989 320.234C523.989 319.594 531.033 308.39 531.898 307.653C532.221 307.378 533.149 305.804 533.961 304.154C534.773 302.505 536.459 299.764 537.707 298.063C538.954 296.362 539.975 294.449 539.975 293.815C539.975 293.179 540.323 292.659 540.747 292.659C541.172 292.659 542.404 290.973 543.485 288.911C544.566 286.85 545.728 284.937 546.066 284.663C546.403 284.388 549.055 280.357 551.959 275.706C554.861 271.055 557.737 266.725 558.347 266.083C558.959 265.442 560.133 263.903 560.957 262.665C561.781 261.427 563.917 258.835 565.703 256.905C567.489 254.975 568.95 253.102 568.95 252.742C568.95 252.382 570.637 250.25 572.697 248.004C579.079 241.05 579.43 240.016 576.668 236.354C575.354 234.611 573.037 231.048 571.519 228.436C568.134 222.611 566.26 222.432 561.068 227.437C558.93 229.499 556.116 232.085 554.814 233.184C549.179 237.944 540.404 245.259 539.227 246.179C538.522 246.729 535.204 249.764 531.853 252.926C528.502 256.088 525.578 258.674 525.355 258.674C525.134 258.674 523.499 260.135 521.723 261.922C519.053 264.608 514.71 268.273 507.503 273.921C506.953 274.352 505.52 275.51 504.318 276.497C503.117 277.484 500.936 279.162 499.472 280.226C498.007 281.292 495.168 283.615 493.164 285.389C491.159 287.163 489.213 288.625 488.84 288.638C488.467 288.651 487.568 289.24 486.841 289.947C484.991 291.75 472.128 301.806 468.635 304.182C454.848 313.559 454.15 313.827 458.545 308.064C459.918 306.261 461.042 304.307 461.042 303.722C461.042 303.135 461.385 302.655 461.805 302.655C462.568 302.655 464.373 299.693 465.611 296.408C465.974 295.445 466.669 294.658 467.154 294.658C467.639 294.658 468.036 294.032 468.036 293.266C468.036 292.5 468.711 291.615 469.535 291.298C470.359 290.982 471.034 290.034 471.034 289.192C471.034 288.35 471.483 287.661 472.033 287.661C472.583 287.661 473.032 287.095 473.032 286.402C473.032 285.709 474.043 283.998 475.28 282.6C478.116 279.394 479.92 276.656 480.672 274.417C480.994 273.455 481.656 272.668 482.141 272.668C482.626 272.668 483.024 272.041 483.024 271.275C483.024 270.51 483.698 269.624 484.522 269.307C485.347 268.991 486.021 268.044 486.021 267.201C486.021 266.359 486.471 265.671 487.02 265.671C487.57 265.671 488.019 265.104 488.019 264.411C488.019 263.718 489.031 262.007 490.267 260.61C493.103 257.403 494.907 254.665 495.659 252.426C495.982 251.465 496.643 250.677 497.129 250.677C497.613 250.677 498.011 250.024 498.011 249.227C498.011 248.43 498.597 247.418 499.314 246.978C500.03 246.539 502.165 243.94 504.06 241.203C505.953 238.466 508.515 235.097 509.751 233.716C510.987 232.336 511.999 230.686 511.999 230.053C511.999 229.419 512.673 228.641 513.498 228.324C514.322 228.008 514.996 227.267 514.996 226.677C514.996 226.086 515.833 224.706 516.856 223.607C517.878 222.51 520.457 219.042 522.587 215.903C524.717 212.763 526.702 209.969 526.998 209.694C527.295 209.419 529.094 207.17 530.999 204.696C532.902 202.222 535.476 199.079 536.718 197.709C537.96 196.341 538.976 194.894 538.976 194.496C538.976 194.097 540.325 192.389 541.973 190.702C543.622 189.015 544.971 187.399 544.971 187.111C544.971 186.554 551.032 178.552 552.094 177.708C552.439 177.433 554.432 174.959 556.522 172.21C558.611 169.461 560.801 166.665 561.389 165.998C561.975 165.329 562.905 164.2 563.455 163.488C564.29 162.405 569.507 155.851 573.431 150.953C573.989 150.257 576.694 147.287 579.441 144.355C582.189 141.422 587.135 135.932 590.432 132.154C593.729 128.376 598.914 122.574 601.952 119.26C613.302 106.883 616.909 102.62 616.909 101.587C616.909 101.121 617.547 100.74 618.325 100.74C619.103 100.74 619.89 100.322 620.074 99.8105C620.642 98.2232 638.533 79.2801 658.374 59.2576C673.762 43.7291 678.777 39.301 684.851 35.8844C688.973 33.5654 693.694 30.7966 695.342 29.732C696.991 28.6665 699.014 27.452 699.838 27.0331C703.88 24.98 708.874 21.0437 709.929 19.0795C710.879 17.3112 710.784 16.2417 709.442 13.5818C706.877 8.49596 705.453 6.35587 704.03 5.44925C703.312 4.99245 702.311 3.53106 701.806 2.20062C700.603 -0.965044 698.462 -0.761141 692.283 3.11023ZM352.572 142.996C356.911 145.23 362.617 150.823 364.665 154.848C365.607 156.701 366.073 157.931 365.701 157.583C365.329 157.234 363.361 157.336 361.328 157.809C351.672 160.054 331.671 160.545 319.913 158.826C318.779 158.66 319.015 155.717 320.163 155.717C320.712 155.717 321.162 155.232 321.162 154.639C321.162 153.29 329.223 145.455 329.907 146.14C330.183 146.417 332.332 145.568 334.683 144.255C337.034 142.942 339.135 142.045 339.352 142.262C339.569 142.478 341.073 142.272 342.693 141.801C345.793 140.9 349.334 141.329 352.572 142.996ZM185.278 213.176C188.85 213.536 193.39 214.247 195.366 214.758C197.343 215.269 200.955 215.889 203.391 216.134C205.828 216.381 209.155 217.275 210.782 218.12C212.41 218.964 216.105 220.185 218.993 220.831C221.882 221.478 224.245 222.329 224.245 222.723C224.245 223.117 225.482 223.698 226.992 224.015C228.503 224.332 233.301 226.637 237.654 229.138C242.006 231.638 245.941 233.684 246.397 233.684C246.852 233.684 247.225 234.104 247.225 234.617C247.225 235.129 248.012 235.801 248.973 236.11C249.935 236.418 251.917 237.685 253.377 238.926C254.837 240.166 257.015 241.856 258.216 242.68C259.418 243.505 261.37 245.005 262.555 246.014C263.74 247.023 266.244 249.16 268.118 250.762C269.993 252.364 271.904 253.676 272.365 253.676C272.826 253.676 273.203 254.35 273.203 255.175C273.203 256 273.573 256.674 274.026 256.674C275.399 256.674 290.188 272.225 290.188 273.668C290.188 274.218 290.565 274.667 291.026 274.667C291.989 274.667 304.176 290.145 304.176 291.369C304.176 291.814 305.076 292.74 306.175 293.427C307.274 294.114 308.18 295.234 308.189 295.916C308.198 296.599 309.547 298.68 311.186 300.542C312.826 302.403 314.168 304.469 314.168 305.135C314.168 305.8 315.088 307.176 316.212 308.195C317.337 309.212 319.647 312.656 321.348 315.846C323.047 319.037 324.774 321.647 325.183 321.647C325.594 321.647 326.668 323.108 327.57 324.896C328.473 326.683 329.76 329.018 330.432 330.085C333.82 335.469 337.884 342.305 338.488 343.638C338.863 344.462 340.042 346.487 341.11 348.136C343.663 352.081 349.302 363.488 348.93 363.955C348.769 364.157 349.138 364.953 349.749 365.724C350.688 366.91 352.268 371.455 352.553 373.792C352.598 374.158 352.973 374.796 353.384 375.207C354.503 376.327 354.289 377.623 352.985 377.623C352.352 377.623 344.372 381.266 335.25 385.719C312.034 397.05 306.554 399.601 302.178 401.113C299.45 402.056 296.176 403.429 280.946 410.015C279.161 410.786 274.776 412.606 271.204 414.057C263.952 417.005 262.401 417.659 256.84 420.11C254.71 421.05 252.462 421.927 251.844 422.058C251.227 422.19 249.456 422.816 247.909 423.45C246.363 424.085 244.93 424.604 244.727 424.604C244.524 424.604 243.092 425.122 241.545 425.756C239.998 426.39 237.833 427.075 236.734 427.278C235.032 427.593 230.159 429.192 224.245 431.375C223.42 431.679 222.446 431.966 222.079 432.014C221.714 432.061 221.076 432.437 220.665 432.85C220.252 433.263 218.941 433.6 217.75 433.6C216.559 433.6 215.272 433.913 214.891 434.295C214.508 434.677 213.534 435.127 212.725 435.295C209.378 435.988 208.712 436.182 207.759 436.744C207.209 437.069 204.287 437.903 201.264 438.598C198.242 439.292 195.095 440.207 194.27 440.63C193.446 441.053 191.423 441.641 189.774 441.938C188.125 442.235 185.653 442.752 184.279 443.088C182.905 443.424 180.657 443.911 179.283 444.173C177.909 444.434 173.638 445.306 169.791 446.111C160.555 448.042 157.583 448.585 152.849 449.21C150.673 449.497 148.641 449.888 148.331 450.08C145.568 451.788 99.631 452.777 87.8611 451.381C72.6141 449.573 56.0333 445.949 49.7426 443.048C48.0111 442.25 45.8749 441.596 44.9967 441.596C44.1174 441.596 43.399 441.237 43.399 440.798C43.399 440.358 41.8254 439.429 39.902 438.734C37.9787 438.038 36.405 437.048 36.405 436.534C36.405 436.02 35.8275 435.599 35.1211 435.599C32.2835 435.599 18.4204 422.253 18.4204 419.52C18.4204 418.532 18.0257 417.481 17.5441 417.183C16.7738 416.706 14.9773 411.047 13.7134 405.112C13.4796 404.012 13.1739 396.815 13.035 389.119C12.8052 376.398 13.051 374.079 15.7377 363.629C17.3633 357.307 19.0079 351.909 19.3915 351.634C19.7752 351.359 20.5905 349.335 21.202 347.136C23.1693 340.064 24.8849 335.641 25.6592 335.641C26.0738 335.641 26.4136 335.17 26.4136 334.596C26.4136 333.153 35.5488 314.423 36.9526 312.986C37.578 312.346 38.6651 310.434 39.3675 308.737C40.0699 307.041 41.0391 305.654 41.5217 305.654C42.0052 305.654 42.3999 304.754 42.3999 303.655C42.3999 302.555 42.8495 301.655 43.399 301.655C43.9486 301.655 44.3982 301.029 44.3982 300.263C44.3982 299.497 45.0726 298.612 45.8969 298.295C46.7212 297.979 47.3956 297.237 47.3956 296.647C47.3956 295.637 48.165 294.517 51.1424 291.197C51.8288 290.43 52.3914 289.322 52.3914 288.732C52.3914 288.143 52.7291 287.658 53.1407 287.654C53.5524 287.65 55.0141 285.964 56.388 283.906C59.7691 278.842 61.8133 276.589 76.8705 261.332C84.0144 254.094 92.1075 246.39 94.8551 244.212C97.6028 242.035 100.211 239.674 100.65 238.967C101.09 238.26 102.064 237.682 102.814 237.682C103.566 237.682 104.339 237.208 104.533 236.626C104.985 235.267 115.744 228.793 125.223 224.175C132.51 220.625 145.442 215.949 150.308 215.105C151.682 214.866 153.93 214.383 155.303 214.031C158.431 213.23 171.782 212.138 175.786 212.357C177.435 212.447 181.706 212.816 185.278 213.176ZM390.393 383.621C390.105 384.72 389.472 385.62 388.987 385.62C388.502 385.62 388.105 386.21 388.105 386.931C388.105 387.653 387.264 390.014 386.238 392.179C385.211 394.344 383.598 397.915 382.651 400.114C381.705 402.313 380.297 405.306 379.522 406.765C378.748 408.224 378.113 410.137 378.113 411.013C378.113 411.891 377.664 412.609 377.114 412.609C376.565 412.609 376.115 413.232 376.115 413.994C376.115 414.756 375.443 416.667 374.622 418.242C373.802 419.817 373.127 421.968 373.123 423.021C373.112 426.517 372.232 424.119 371.647 418.997C371.33 416.221 370.89 413.014 370.67 411.871C370.179 409.322 368.737 400.365 368.67 399.447C368.643 399.081 368.285 398.444 367.872 398.032C366.813 396.972 366.936 393.383 368.009 394.046C368.495 394.347 369.45 393.925 370.129 393.106C370.808 392.287 371.709 391.617 372.13 391.617C373.114 391.617 386.077 384.05 387.457 382.669C389.223 380.903 390.956 381.465 390.393 383.621Z" fill="currentColor"/>
</svg>
