<svg width="797" height="773" viewBox="0 0 797 773" fill="none" xmlns="http://www.w3.org/2000/svg">
<path fill-rule="evenodd" clip-rule="evenodd" d="M779.446 1.61171C778.665 2.86371 776.33 6.58871 774.258 9.88871C768.745 18.6677 754.751 34.3307 741.199 46.8887C714.77 71.3787 660.251 122.89 644.285 138.455C620.312 161.826 589.495 188.117 542.285 225.475C494.386 263.379 475.434 276.122 411.285 313.551C385.489 328.603 312.316 365.653 302.285 368.742C300.754 369.213 298.173 367.47 291.285 361.314C272.163 344.223 254.911 334.556 234.331 329.401C218.189 325.357 207.758 326.29 183.363 333.959C165.743 339.499 141.195 354.043 134.363 362.991C126.719 373.002 128.45 379.104 142.511 391.707C153.85 401.87 157.492 403.524 175.208 406.559C185.12 408.257 189.884 408.53 201.785 408.085C232.374 406.94 275.11 398.428 303.923 387.74L314.115 383.959L325.467 395.924C331.71 402.505 340.849 413.174 345.774 419.632C353.939 430.338 367.378 444.13 368.526 442.982C369.787 441.72 351.251 419.818 334.399 402.66C318.706 386.681 315.832 383.317 317.399 382.757C329.09 378.586 402.456 341.404 426.285 327.574C488.583 291.418 510.928 276.332 561.285 236.427C609.141 198.505 634.393 176.775 665.785 146.502C702.431 111.162 724.388 90.6557 722.656 93.3887C718.536 99.8877 686.127 155.292 674.981 174.889C659.236 202.572 645.673 225.727 631.342 249.389C621.615 265.451 592.943 318.029 582.536 338.889C571.843 360.323 523.924 482.05 509.71 523.889C505.412 536.539 499.491 552.964 496.552 560.389L491.209 573.889L474.578 587.389C465.431 594.814 455.656 602.847 452.857 605.24L447.767 609.59L446.375 606.24C445.609 604.397 443.385 598.918 441.432 594.064C433.457 574.243 417.224 552.173 397.798 534.74C386.718 524.797 367.819 509.92 354.869 500.946C332.781 485.641 305.331 475.838 260.785 467.347C244.91 464.321 243.282 464.201 217.785 464.177C189.847 464.15 163.62 465.532 147.785 467.865C128.403 470.721 94.4899 481.991 73.2849 492.624C60.9459 498.81 50.2649 506.618 40.2849 516.745C21.6249 535.679 15.6259 545.611 6.70094 572.341C2.45794 585.051 1.35594 589.841 0.491936 599.34C-2.05706 627.366 5.62594 672.16 15.9999 689.754C21.4859 699.057 24.8379 703.36 36.2609 715.757C70.7919 753.231 102.293 770.841 138.343 772.821C148.422 773.375 168.805 771.362 187.285 767.987C191.685 767.184 199.335 766.021 204.285 765.403C209.235 764.785 222.285 762.035 233.285 759.291C270.854 749.922 293.195 741.179 328.285 722.117C357.67 706.153 366.233 700.27 412.725 664.111C429.467 651.089 443.289 640.56 443.441 640.712C444.624 641.895 445.392 660.608 444.762 672.889C444.017 687.385 438.119 724.318 434.301 738.389C433.48 741.414 432.803 744.621 432.797 745.516C432.79 746.412 436.141 750.147 440.242 753.818L447.699 760.492L449.328 754.69C450.223 751.5 453.589 741.014 456.806 731.389C460.024 721.764 465.676 704.214 469.365 692.389C477.557 666.137 505.427 588.007 506.966 586.981C507.141 586.864 516.285 578.708 527.285 568.856C553.429 545.441 586.329 513.007 599.525 497.639C605.31 490.901 610.177 485.389 610.34 485.389C610.503 485.389 606.878 493.174 602.283 502.69C597.689 512.205 592.143 525.143 589.959 531.44C587.776 537.737 583.082 550.089 579.529 558.889C565.516 593.599 557.719 616.463 551.267 641.771C541.578 679.771 540.644 685.779 540.052 713.931L539.546 737.973L542.582 743.931C545.319 749.304 548.293 752.643 558.525 761.833C562.191 765.127 564.215 764.572 561.073 761.135C556.113 755.711 555.785 753.833 555.785 730.871C555.785 703.64 557.008 694.961 565.904 659.077C572.849 631.058 582.127 603.561 595.906 570.154C598.688 563.408 602.702 552.801 604.826 546.581C606.95 540.362 613.492 525.287 619.366 513.081C625.239 500.876 634.02 482.021 638.88 471.182C653.065 439.547 658.965 428.844 672.503 410.189C680.934 398.571 697.062 371.021 702.953 358.172L704.658 354.455L697.033 347.542L689.409 340.629L684.461 349.259C681.74 354.005 675.464 364.414 670.515 372.389C665.565 380.364 658.883 391.302 655.664 396.697C647.217 410.856 628.66 434.131 605.68 459.389C599.925 465.714 589.768 477.189 583.109 484.889C573.007 496.569 528.089 541.344 524.071 543.739C520.632 545.789 556.882 450.132 587.301 376.889C599.314 347.963 626.129 297.169 652.499 253.389C661.278 238.814 675.124 215.189 683.268 200.889C714.966 145.227 752.288 82.6307 764.356 64.8887C774.962 49.2947 786.312 30.9947 791.792 20.6527L796.156 12.4157L789.826 6.65271C781.465 -0.960286 781.147 -1.11529 779.446 1.61171ZM249.907 343.803C262.622 347.077 278.212 354.123 287.556 360.82C297.846 368.196 299.215 369.295 298.712 369.779C297.423 371.019 280.387 376.831 267.785 380.329C227.411 391.537 185.487 396.604 163.285 392.96C157.785 392.057 151.543 390.852 149.413 390.282L145.541 389.246L146.052 384.715C146.472 380.984 147.421 379.302 151.424 375.19C164.631 361.623 190.511 348.787 217.285 342.525C225.283 340.655 239.902 341.228 249.907 343.803ZM275.785 481.538C316.702 488.915 346.774 499.546 368.285 514.239C394.26 531.981 403.308 540.961 415.445 561.042C422.569 572.83 432.327 595.287 436.84 610.279L439.065 617.669L437.016 619.279C408.225 641.899 357.703 680.83 349.785 686.498C337.024 695.632 291.257 720.655 276.785 726.41C245.916 738.687 213.005 747.809 184.724 751.929C175.132 753.326 166.61 754.665 165.785 754.904C164.96 755.143 157.085 756.213 148.285 757.282C114.727 761.358 91.0469 756.005 62.9429 737.99C52.3859 731.223 36.8669 713.298 30.2059 700.177C19.7909 679.663 13.1169 633.87 16.6679 607.3C17.8389 598.547 23.9709 578.81 29.6539 565.507C36.3899 549.741 56.8349 526.469 74.2849 514.705C93.4799 501.765 136.507 485.932 163.257 481.965C168.772 481.147 182.285 479.999 193.285 479.414C237.04 477.089 253.453 477.511 275.785 481.538ZM473.266 621.639C471.43 626.726 467.759 637.128 465.107 644.754L460.285 658.618L459.503 653.254C459.073 650.303 458.025 644.514 457.173 640.389C456.322 636.264 455.548 632.381 455.455 631.761C455.313 630.819 475.075 612.389 476.227 612.389C476.434 612.389 475.101 616.552 473.266 621.639Z" fill="black"/>
</svg>
