<svg class="SVGInline-svg" xmlns="http://www.w3.org/2000/svg" viewBox="0 0 116 20"><path style="fill:#00c0d1;" d="M30.4 15.5c-.4-.9-.8-1.8-1.2-2.9s-.9-2.1-1.4-3.2c-.5-1.1-.9-2.2-1.4-3.2-.5-1.1-.9-2-1.2-2.9-.4-.9-.7-1.6-.9-2.2-.3-.6-.5-1-.6-1.1-.1.1-.2.5-.5 1.1-.2.6-.6 1.3-.9 2.2-.4.9-.8 1.8-1.2 2.9s-.9 2.1-1.4 3.2l-.9 2.1h-3.6V14h2.6l-.6 1.5c-.4.9-.7 1.6-.9 2.2-.2.6-.4.9-.5 1.1h3l2-4.7H27c.2.6.5 1.1.7 1.6.2.5.4 1 .6 1.4.2.4.3.8.5 1.1.1.3.2.5.3.6h3c-.1-.1-.2-.5-.5-1.1-.5-.6-.8-1.3-1.2-2.2zm-6.9-8.3s0-.1.1-.3c.1-.2.1-.4.1-.6 0 .2.1.3.1.6s.2.3.2.3l1.8 4.3h-4.1l1.8-4.3zM3.6.8h-3v18h11.7v-2.9H3.6zM47.2 3.8c-.8-.9-1.8-1.6-3.1-2.1-1.3-.6-2.8-.8-4.6-.8h-4.7v18h5.6c1.2 0 2.4-.2 3.5-.6 1.1-.4 2.1-1 2.9-1.7.8-.8 1.5-1.7 2-2.8.5-1.1.7-2.3.7-3.6 0-1.1-.2-2.2-.5-3.3-.5-1.3-1-2.3-1.8-3.1zm-1.3 8.7c-.3.7-.8 1.4-1.3 1.9-.6.5-1.3.9-2 1.2-.8.3-1.7.4-2.6.4h-2V3.7h2.4c.7 0 1.3.1 2.1.3.7.2 1.4.6 2 1.1.6.5 1.1 1.1 1.5 1.9.4.8.6 1.7.6 2.8-.2 1.1-.4 1.9-.7 2.7zM65 3.8c-.8-.9-1.8-1.6-3.1-2.1-1.3-.6-2.8-.8-4.6-.8h-4.7v18h5.6c1.2 0 2.4-.2 3.5-.6 1.1-.4 2.1-1 2.9-1.7.8-.8 1.5-1.7 2-2.8.5-1.1.7-2.3.7-3.6 0-1.1-.2-2.2-.5-3.3-.5-1.3-1-2.3-1.8-3.1zm-1.3 8.7c-.3.7-.8 1.4-1.3 1.9-.6.5-1.3.9-2 1.2-.8.3-1.7.4-2.6.4h-2V3.7h2.4c.7 0 1.3.1 2.1.3.7.2 1.4.6 2 1.1.6.5 1.1 1.1 1.5 1.9.4.8.6 1.7.6 2.8-.2 1.1-.4 1.9-.7 2.7zM73.5 11.2h8V8.4h-8V3.6h8.9V.8H70.5v18h12.3V16h-9.3zM114.3 11.2c-.4-.7-1-1.2-1.6-1.6-.7-.4-1.4-.8-2.1-1-.8-.3-1.5-.5-2.1-.8-.7-.3-1.2-.6-1.6-.9-.4-.3-.7-.8-.7-1.3 0-.6.3-1.1.9-1.5.6-.4 1.4-.6 2.4-.6.6 0 1.2.1 1.9.2s1.4.3 2 .6l1.1-2.5c-.1 0-.3-.1-.6-.2s-.7-.3-1.2-.4c-.5-.1-1-.3-1.6-.4-.6-.1-1.2-.2-1.9-.2-1 0-1.9.1-2.7.4-.7.3-1.4.7-1.9 1.2s-.9 1-1.1 1.6c-.2.6-.4 1.2-.4 1.8 0 .9.2 1.6.7 2.2.4.6 1 1 1.6 1.4.7.4 1.4.7 2.1 1 .8.3 1.5.6 2.1.9.7.3 1.2.6 1.6 1 .4.4.7.8.7 1.4 0 .5-.2.9-.5 1.2-.3.3-.7.6-1.1.7-.4.2-.9.3-1.4.4-.5.1-.9.1-1.1.1-.6 0-1.3-.1-2.1-.3-.8-.2-1.5-.5-2.2-.9l-1.3 2.6c.3.2.6.3.9.5.4.2.8.3 1.2.5.5.1 1 .3 1.6.4.6.1 1.2.1 2 .1 1.2 0 2.2-.1 3.1-.4.9-.3 1.6-.6 2.2-1.1.6-.5 1-1 1.3-1.7.3-.6.4-1.4.4-2.1.1-.8-.1-1.6-.6-2.3zM95.7 11.4c2-.9 3.1-2.7 3.1-5 0-1.7-.5-3-1.6-4C95.6.8 93.3.8 92.9.8h-6.5v18.1h2.7v-6.8h3l4.8 6.8h3.3l-5.1-7.2.6-.3zm-6.5-7.9H93s1.5 0 2.3.9c.5.5.7 1.2.7 2.1 0 1.2-.5 2-1.5 2.5-.8.4-1.7.5-1.8.5H89v-6z"></path></svg>