<svg viewBox="0 0 116 20" xmlns="http://www.w3.org/2000/svg"><path d="m30.4 15.5c-.4-.9-.8-1.8-1.2-2.9s-.9-2.1-1.4-3.2-.9-2.2-1.4-3.2c-.5-1.1-.9-2-1.2-2.9-.4-.9-.7-1.6-.9-2.2-.3-.6-.5-1-.6-1.1-.1.1-.2.5-.5 1.1-.2.6-.6 1.3-.9 2.2-.4.9-.8 1.8-1.2 2.9s-.9 2.1-1.4 3.2l-.9 2.1h-3.6v2.5h2.6l-.6 1.5c-.4.9-.7 1.6-.9 2.2s-.4.9-.5 1.1h3l2-4.7h6.2c.2.6.5 1.1.7 1.6s.4 1 .6 1.4.3.8.5 1.1c.1.3.2.5.3.6h3c-.1-.1-.2-.5-.5-1.1-.5-.6-.8-1.3-1.2-2.2zm-6.9-8.3s0-.1.1-.3.1-.4.1-.6c0 .2.1.3.1.6s.2.3.2.3l1.8 4.3h-4.1zm-19.9-6.4h-3v18h11.7v-2.9h-8.7zm43.6 3c-.8-.9-1.8-1.6-3.1-2.1-1.3-.6-2.8-.8-4.6-.8h-4.7v18h5.6c1.2 0 2.4-.2 3.5-.6s2.1-1 2.9-1.7c.8-.8 1.5-1.7 2-2.8s.7-2.3.7-3.6c0-1.1-.2-2.2-.5-3.3-.5-1.3-1-2.3-1.8-3.1zm-1.3 8.7c-.3.7-.8 1.4-1.3 1.9-.6.5-1.3.9-2 1.2-.8.3-1.7.4-2.6.4h-2v-12.3h2.4c.7 0 1.3.1 2.1.3.7.2 1.4.6 2 1.1s1.1 1.1 1.5 1.9.6 1.7.6 2.8c-.2 1.1-.4 1.9-.7 2.7zm19.1-8.7c-.8-.9-1.8-1.6-3.1-2.1-1.3-.6-2.8-.8-4.6-.8h-4.7v18h5.6c1.2 0 2.4-.2 3.5-.6s2.1-1 2.9-1.7c.8-.8 1.5-1.7 2-2.8s.7-2.3.7-3.6c0-1.1-.2-2.2-.5-3.3-.5-1.3-1-2.3-1.8-3.1zm-1.3 8.7c-.3.7-.8 1.4-1.3 1.9-.6.5-1.3.9-2 1.2-.8.3-1.7.4-2.6.4h-2v-12.3h2.4c.7 0 1.3.1 2.1.3.7.2 1.4.6 2 1.1s1.1 1.1 1.5 1.9.6 1.7.6 2.8c-.2 1.1-.4 1.9-.7 2.7zm9.8-1.3h8v-2.8h-8v-4.8h8.9v-2.8h-11.9v18h12.3v-2.8h-9.3zm40.8 0c-.4-.7-1-1.2-1.6-1.6-.7-.4-1.4-.8-2.1-1-.8-.3-1.5-.5-2.1-.8-.7-.3-1.2-.6-1.6-.9s-.7-.8-.7-1.3c0-.6.3-1.1.9-1.5s1.4-.6 2.4-.6c.6 0 1.2.1 1.9.2s1.4.3 2 .6l1.1-2.5c-.1 0-.3-.1-.6-.2s-.7-.3-1.2-.4-1-.3-1.6-.4-1.2-.2-1.9-.2c-1 0-1.9.1-2.7.4-.7.3-1.4.7-1.9 1.2s-.9 1-1.1 1.6-.4 1.2-.4 1.8c0 .9.2 1.6.7 2.2.4.6 1 1 1.6 1.4.7.4 1.4.7 2.1 1 .8.3 1.5.6 2.1.9.7.3 1.2.6 1.6 1s.7.8.7 1.4c0 .5-.2.9-.5 1.2s-.7.6-1.1.7c-.4.2-.9.3-1.4.4s-.9.1-1.1.1c-.6 0-1.3-.1-2.1-.3s-1.5-.5-2.2-.9l-1.3 2.6c.3.2.6.3.9.5.4.2.8.3 1.2.5.5.1 1 .3 1.6.4s1.2.1 2 .1c1.2 0 2.2-.1 3.1-.4s1.6-.6 2.2-1.1 1-1 1.3-1.7c.3-.6.4-1.4.4-2.1.1-.8-.1-1.6-.6-2.3zm-18.6.2c2-.9 3.1-2.7 3.1-5 0-1.7-.5-3-1.6-4-1.6-1.6-3.9-1.6-4.3-1.6h-6.5v18.1h2.7v-6.8h3l4.8 6.8h3.3l-5.1-7.2zm-6.5-7.9h3.8s1.5 0 2.3.9c.5.5.7 1.2.7 2.1 0 1.2-.5 2-1.5 2.5-.8.4-1.7.5-1.8.5h-3.7v-6z" fill="#00c0d1"/></svg>