<svg width="773" height="135" viewBox="0 0 773 135" fill="none" xmlns="http://www.w3.org/2000/svg">
<path fill-rule="evenodd" clip-rule="evenodd" d="M418.986 0.911267C411.923 2.20627 400.375 6.51027 394.191 10.1513C391.089 11.9783 385.098 16.8873 380.876 21.0613C374.598 27.2683 372.376 30.3623 368.664 38.0613C363.574 48.6173 361.992 55.6013 362.017 67.4063C362.074 93.9253 377.16 117.271 401.5 128.506C411.971 133.339 419.959 134.972 433.126 134.972C454.491 134.972 470.246 128.667 484.466 114.427C497.957 100.917 504.015 86.2173 503.985 67.0623C503.955 47.6903 498.488 34.3853 485.036 20.9443C475.752 11.6683 467.857 6.86127 455.5 2.95927C447.773 0.520266 427.36 -0.625733 418.986 0.911267ZM579.363 1.06427C559.494 4.38527 540.263 18.1583 531.32 35.4723C529.047 39.8723 526.705 45.2863 526.114 47.5033C517.409 80.1963 531.222 112.959 559.728 127.229C572.674 133.709 580.922 135.336 597.859 134.748C609.234 134.353 612.829 133.825 619.5 131.568C632.958 127.014 649.11 116.655 647.364 113.697C646.77 112.69 641.611 105.934 638.931 102.653C638.563 102.203 634.924 104.1 630.843 106.868C591.738 133.401 543.611 111.389 543.611 66.9723C543.611 45.7693 555.192 27.9923 573.988 20.3453C581.918 17.1183 597.358 15.9993 607.246 17.9343C613.727 19.2023 625.877 24.3243 630.916 27.9133C632.507 29.0453 634.213 29.9723 634.708 29.9723C635.793 29.9723 644 18.5153 644 16.9993C644 15.4093 632.965 8.57127 625.712 5.66727C612.763 0.483266 593.992 -1.38073 579.363 1.06427ZM146 132.972H174.364C189.963 132.972 205.151 132.523 208.114 131.973C216.091 130.494 227.265 124.649 231.441 119.77C237.962 112.151 239.494 107.721 239.497 96.4723C239.5 88.1513 239.114 85.6333 237.201 81.4723C234.295 75.1543 228.873 69.5013 222.675 66.3313L217.851 63.8633L221.822 60.9863C226.537 57.5713 230.304 52.8423 232.631 47.4183C235.136 41.5803 234.961 28.8123 232.293 22.8503C227.793 12.7913 217.666 5.30627 205.52 3.06027C202.215 2.44927 187.871 1.97227 172.816 1.97227H146V132.972ZM270.821 64.9723C270.723 99.6223 270.611 128.984 270.571 130.222L270.5 132.472L352 132.994V116.972H290V1.97227H271L270.821 64.9723ZM675 132.972H693.97L694.5 73.4723H715.405L751.556 132.472L762.278 132.756C768.175 132.912 773 132.664 773 132.205C773 131.746 763.713 116.543 752.361 98.4213C741.01 80.2993 731.717 65.0223 731.711 64.4723C731.705 63.9223 740.542 49.8353 751.35 33.1673C762.157 16.5003 771 2.66227 771 2.41727C771 2.17227 766.271 1.97227 760.491 1.97227H749.982L747.047 6.72227C745.432 9.33527 737.671 21.5973 729.8 33.9723L715.488 56.4723H694.5L693.968 1.97227H675V132.972ZM453.114 20.3703C465.523 25.4473 476.2 36.2863 481.187 48.8683C483.054 53.5813 483.413 56.4593 483.442 66.9723C483.471 77.8043 483.163 80.2513 481.132 85.3123C471.335 109.727 446.246 122.957 421 117.021C402.7 112.718 386.94 96.5613 383.105 78.1733C377.851 52.9773 390.462 29.3193 414 20.2143C422.007 17.1173 422.423 17.0613 435 17.3763C444.794 17.6213 447.481 18.0653 453.114 20.3703ZM201.477 19.0873C208.659 21.0813 214.989 29.6943 214.989 37.4723C214.989 41.3603 212.89 46.9493 210.253 50.0833C205.259 56.0183 201.559 56.9253 182.25 56.9503L165 56.9723V17.9723L181.25 17.9783C190.188 17.9813 199.29 18.4803 201.477 19.0873ZM208.529 75.4833C213.498 78.0243 214.848 79.3333 217.287 83.9803C219.831 88.8263 220.13 90.3063 219.824 96.5623C219.375 105.743 216.38 110.607 208.871 114.349C203.737 116.907 203.131 116.972 184.304 116.972H165V95.1393C165 83.1303 165.338 72.9613 165.75 72.5413C166.162 72.1213 174.635 71.9353 184.577 72.1283C202.381 72.4733 202.743 72.5243 208.529 75.4833Z" fill="currentColor"/>
<path d="M71.9935 31.4913L30.0696 73.4152C28.913 74.5717 27.106 74.5717 25.9495 73.4152L7.01141 54.4772C5.85489 53.3206 5.85489 51.5136 7.01141 50.3571L48.9353 8.43314C50.0919 7.27662 51.8989 7.27662 53.0554 8.43314L71.9935 27.3712C73.0777 28.5277 73.0777 30.4071 71.9935 31.4913Z" fill="currentColor"/>
<path d="M75.2462 86.4261L33.3223 128.35C32.1658 129.507 30.3587 129.507 29.2022 128.35L10.2641 109.412C9.10761 108.255 9.10761 106.448 10.2641 105.292L52.188 63.3679C53.3446 62.2114 55.1516 62.2114 56.3082 63.3679L75.2462 82.306C76.3304 83.4625 76.3304 85.3418 75.2462 86.4261Z" fill="currentColor"/>
<path d="M126.928 34.744L85.0044 76.6679C83.8478 77.8244 82.0408 77.8244 80.8842 76.6679L61.9462 57.7299C60.7897 56.5734 60.7897 54.7663 61.9462 53.6098L103.87 11.6859C105.027 10.5293 106.834 10.5293 107.99 11.6859L126.928 30.6239C128.013 31.7804 128.013 33.6598 126.928 34.744Z" fill="currentColor"/>
</svg>
