<svg width="703" height="289" viewBox="0 0 703 289" fill="none" xmlns="http://www.w3.org/2000/svg">
<path fill-rule="evenodd" clip-rule="evenodd" d="M97.2073 23.9604C92.3727 37.1388 88.6395 48.1443 88.9124 48.4157C90.1068 49.6079 98.6546 40.4911 101.712 34.7653C104.487 29.5694 105.145 27.1131 105.526 20.5443L105.987 12.6048L108.251 17.0504C111.147 22.7382 119.424 30.4753 125.482 33.1561C128.254 34.3822 133.205 35.4368 137.496 35.7141L144.794 36.186L139.947 38.9486C129.883 44.6863 123.139 55.3795 122.016 67.3767L121.387 74.0891L119.795 71.1709C115.102 62.5668 107.108 56.1308 97.7811 53.444C87.0603 50.3552 87.735 49.7805 81.1602 67.5932C77.9698 76.2351 72.7853 90.2656 69.6379 98.7708C63.0851 116.478 62.9911 115.754 72.4615 120.38C76.3226 122.265 80.0228 123.162 85.3482 123.503L92.8195 123.982L87.9729 126.745C77.9658 132.45 71.1631 143.184 70.0567 155.014L69.443 161.569L66.7483 157.357C63.5708 152.39 55.097 144.377 53.5627 144.888C52.6142 145.203 28.7469 208.435 28.7469 210.633C28.7469 211.115 31.5585 211.513 34.9938 211.518L41.2408 211.528L36.1963 214.417C25.9693 220.272 19.1966 230.895 18.0791 242.833C17.5904 248.065 17.2326 249.094 16.332 247.864C15.4204 246.62 13.7203 250.359 7.60027 267.075L0 287.832L5.11949 288.142C10.9506 288.495 12.0511 287.6 16.5219 278.863C18.394 275.205 19.2036 271.793 19.5434 266.138L20.0072 258.411L21.9992 262.429C24.8138 268.107 31.6175 274.754 37.8864 277.948C41.9244 280.005 45.1579 280.791 51.043 281.144L58.8471 281.611L53.7916 284.492C51.012 286.077 48.7371 287.589 48.7371 287.852C48.7371 288.116 59.137 288.331 71.8478 288.331C91.3032 288.331 94.7795 288.115 93.823 286.964C91.6131 284.306 80.8194 280.284 74.2536 279.671L67.6818 279.06L71.8318 276.96C74.1137 275.806 77.8908 272.743 80.2257 270.153C86.4726 263.224 88.9374 257.339 89.5101 247.992L89.9949 240.077L92.3937 244.788C97.884 255.571 108.909 262.541 121.549 263.221L128.894 263.617L124.548 266.068C117.221 270.201 111.555 276.635 108.241 284.59L106.682 288.331H177.161H247.64L247.684 281.098L247.728 273.865L249.794 277.855C250.929 280.05 253.246 283.305 254.943 285.089L258.026 288.331H282.241H306.455L310.023 284.17C314.793 278.608 317.657 270.654 317.794 262.588L317.906 256.084L320.195 260.579C323.371 266.819 332.377 274.763 339.136 277.286C342.516 278.549 347.045 279.352 350.782 279.352H356.896L350.494 283.592L344.092 287.832L356.777 288.111C363.754 288.264 375.421 288.264 382.704 288.111L395.947 287.832L390.51 284.124C384.919 280.311 375.823 277.357 369.674 277.357H366.189L370.647 274.535C380.963 268.004 387.552 256.653 387.881 244.841L388.052 238.711L390.698 243.338C394.103 249.288 401.438 256.019 407.385 258.651C410.095 259.85 415.086 260.915 419.261 261.185L426.464 261.65L420.761 265.333C413.446 270.057 407.744 277.625 405.123 286.086L404.428 288.331H435.98C453.334 288.331 467.532 288.113 467.532 287.846C467.532 286.555 459.378 265.898 458.408 264.732C456.83 262.833 445.107 259.399 440.19 259.394L436.047 259.391L439.545 257.303C443.993 254.649 451.54 247.396 451.54 245.775C451.54 244.352 432.051 191.724 431.216 190.89C430.911 190.586 427.721 190.102 424.127 189.814L417.591 189.29L421.322 187.338C423.373 186.265 427.392 182.931 430.251 179.929C436.456 173.415 439.659 165.807 439.887 157.048L440.045 150.974L442.678 155.551C444.126 158.068 446.208 160.935 447.306 161.92C449.247 163.665 449.378 163.612 452.264 159.925C463.108 146.07 467.531 128.762 467.509 100.267C467.493 79.8966 465.474 70.8526 457.019 53.2904C448.478 35.5515 433.282 18.124 421.833 12.942C397.295 1.83375 387.238 -0.141671 357.128 0.229468L335.297 0.498843L333.857 4.48958C333.065 6.68449 332.345 11.2828 332.258 14.7079C332.17 18.1329 332.028 20.9394 331.943 20.9434C331.858 20.9474 330.421 18.532 328.75 15.5759C325.679 10.1445 319.776 4.59434 313.907 1.62124C311.457 0.380118 307.759 0 298.125 0C284.018 0 281.015 0.938822 273.527 7.69215C264.095 16.1964 261.646 24.4114 261.094 49.3854C260.733 65.6776 260.825 66.9736 262.087 63.353C262.852 61.1581 263.517 56.444 263.565 52.8773L263.651 46.3924L266.528 51.4007C270.169 57.7351 277.309 64.3427 283.402 67.0155C286.084 68.1918 291.27 69.3062 295.418 69.5965L302.717 70.1073L297.785 72.9188C287.469 78.8002 280.526 90.52 280.262 102.504C280.186 105.929 280.021 108.736 279.894 108.74C279.768 108.744 278.724 106.909 277.576 104.662C275.19 99.994 268.543 93.1359 263.834 90.4831L260.633 88.6813V121.682V154.682L264.509 152.708C269.258 150.29 275.753 143.086 278.812 136.845C280.424 133.556 281.202 129.901 281.468 124.366L281.843 116.54L284.62 121.393C288.143 127.549 295.413 134.267 301.437 136.933C304.171 138.144 309.144 139.198 313.418 139.474L320.726 139.946L316.417 142.377C310.886 145.496 307.256 148.973 303.606 154.651C300.148 160.031 297.26 170.438 297.843 175.422C298.178 178.287 298.053 178.622 297.186 177.169C292.794 169.799 289.813 166.193 285.501 163.034C279.967 158.978 270.501 155.639 264.542 155.639H260.633V191.556V227.472L264.881 227.488L269.129 227.505L265.131 229.764L261.133 232.024L260.633 259.779L260.133 287.534L254.924 272.632C252.058 264.438 249.176 256.423 248.517 254.824L247.321 251.916L246.599 254.909C246.202 256.555 245.805 259.697 245.719 261.892L245.561 265.883L243.948 262.89C237.707 251.3 224.473 243.435 211.212 243.435H207.189L211.172 241.343C217.043 238.26 223.038 232.028 226.284 225.632C228.545 221.18 229.225 218.331 229.51 212.13C229.757 206.76 230.174 204.705 230.825 205.645C232.729 208.391 230.474 202.051 227.411 196.045C223.142 187.674 220.338 184.278 214.352 180.234C208.417 176.224 200.379 173.618 193.734 173.55L189.168 173.504L193.793 171.1C201.63 167.025 210.658 154.944 210.658 148.529C210.658 147.16 207.969 138.435 204.683 129.139C200.05 116.034 198.086 111.732 195.937 109.978C192.348 107.049 181.739 103.762 175.82 103.747L171.177 103.735L175.675 101.182C181.086 98.1104 185.104 94.4209 187.834 90.0191L189.858 86.7557L181.165 61.9483C171.328 33.8764 172.309 35.1904 160.438 34.1967L153.626 33.627L158.403 30.8873C161.031 29.3808 164.191 27.0622 165.427 25.7353L167.674 23.3219L163.536 11.6609L159.398 0H132.698H105.998L97.2073 23.9604ZM484.046 7.00874C487.651 10.9855 498.033 15.1967 505.551 15.7345L512.604 16.2373L507.678 19.0458C502.065 22.2454 496.472 28.3323 493.485 34.49C491.101 39.4056 489.161 50.1207 490.093 53.2215C490.449 54.4038 488.9 52.566 486.653 49.136C484.406 45.706 482.333 42.9005 482.047 42.9005C481.76 42.9005 481.525 49.4343 481.525 57.4188V71.9381L486.772 71.6358L492.02 71.3345L491.929 67.0315L491.838 62.7295L494.346 67.2809L496.853 71.8333H518.175H539.496V77.3206C539.496 80.3386 539.739 82.8079 540.036 82.8079C540.333 82.8079 542.264 81.9479 544.329 80.8963C548.848 78.5957 555.608 71.4812 558.321 66.1715C560.701 61.5163 562.918 50.9278 562.247 47.425C561.564 43.8572 562.02 44.2463 564.624 49.4523C569.559 59.3134 581.5 66.799 593.875 67.7897L600.777 68.3414L597.373 69.9836C591.561 72.7871 585.975 78.4011 582.476 84.9519C579.714 90.1259 579.04 92.6201 578.667 99.0522L578.214 106.867L575.443 102.023C569.575 91.7681 558.454 84.891 546.337 84.0261L539.496 83.5372V119.589V155.639L544.744 155.702C549.065 155.755 549.576 155.931 547.637 156.706C546.343 157.224 543.981 158.573 542.39 159.704L539.496 161.761L539.508 189.877L539.521 217.994L542.853 220.147C548.077 223.523 555.01 225.477 561.771 225.478L567.982 225.479L563.485 227.699C557.519 230.644 551.242 237.044 547.889 243.597C545.838 247.608 545.051 250.845 544.699 256.706L544.231 264.49L541.895 260.697L539.558 256.904L539.527 272.683L539.496 288.464L542.245 288.147C544.835 287.85 545.052 287.433 545.995 280.907C546.945 274.343 547.062 274.122 548.222 276.665C548.896 278.141 551.314 281.369 553.595 283.839L557.743 288.331H579.896H602.05L606.205 284.091C612.249 277.924 615.743 269.651 615.862 261.227C615.915 257.486 616.026 254.422 616.108 254.418C616.19 254.413 617.242 256.318 618.447 258.65C621.961 265.457 630.152 272.903 636.206 274.795L638.462 275.5L638.205 205.842L637.948 136.184L632.572 135.878L627.194 135.572L631.073 133.524C638.931 129.375 638.448 131.464 638.448 101.587V74.7825L633.7 71.7765C627.793 68.0362 620.634 65.8612 614.028 65.8003L608.962 65.7544L613.504 63.3919C623.981 57.9426 631.5 45.8147 631.785 33.9073C631.876 30.0842 632.021 26.9515 632.106 26.9465C632.191 26.9415 633.608 29.321 635.256 32.2352C641.04 42.4655 651.376 48.7918 663.753 49.6757L670.753 50.1756L666.992 52.1021C662.05 54.6322 655.099 61.644 652.51 66.7102C651.373 68.9351 650.442 70.9983 650.442 71.2946C650.442 71.5909 662.136 71.8333 676.429 71.8333H702.417V62.2995V52.7656L697.685 50.6764C695.071 49.5221 689.851 48.3648 686.022 48.0914L679.091 47.5966L683.551 45.3338C695.643 39.2001 703.992 22.9398 701.967 9.46504L701.291 4.96348L666.121 5.22488L630.952 5.48727L630.652 12.4212L630.351 19.3551L627.509 14.4166C621.802 4.49856 623.252 4.9146 595.426 5.21989L571.063 5.48727L567.278 10.4757C562.564 16.6873 560.4 23.0066 560.288 30.8923L560.202 36.9932L557.441 32.1674C551.574 21.9122 540.457 15.0531 528.299 14.1851L521.411 13.6932L526.255 10.9316C536.637 5.01237 536.563 4.98843 507.979 4.98843H482.215L484.046 7.00874ZM413.427 24.2058C420.001 30.1341 426.992 33.1661 435.35 33.7128L442.648 34.1907L437.717 37.0012C432.124 40.1898 426.509 46.2846 423.558 52.3685C421.124 57.3889 419.186 67.238 419.999 70.4685C420.921 74.134 420.013 73.3029 416.707 67.4555C411.083 57.5096 400.358 50.9578 388.29 50.0958L381.48 49.6099L386.406 46.8014C392.016 43.6028 397.612 37.515 400.594 31.3672C402.974 26.4586 404.758 16.7342 403.953 13.0467C403.581 11.3417 404.399 12.1718 406.381 15.511C408.025 18.2806 411.195 22.1935 413.427 24.2058ZM343.25 42.0854C349.296 47.8669 356.819 51.1324 365.357 51.6791L372.682 52.149L367.751 54.9605C357.435 60.8418 350.492 72.5616 350.227 84.5458C350.151 87.9709 350.019 90.7774 349.934 90.7814C349.849 90.7854 348.415 88.375 346.747 85.4248C341.181 75.5797 330.76 69.1556 318.721 68.1489L311.548 67.5483L316.458 64.7498C326.731 58.8934 332.859 48.726 333.442 36.5702L333.817 28.7433L336.613 33.5771C338.15 36.2359 341.137 40.064 343.25 42.0854ZM432.026 94.5516C438.684 100.401 444.773 102.969 453.341 103.541L460.639 104.029L455.709 106.839C450.115 110.028 444.5 116.123 441.549 122.206C439.115 127.227 437.178 137.076 437.99 140.306C438.912 143.972 438.004 143.141 434.698 137.293C429.064 127.329 418.764 121.039 406.383 120.004L399.271 119.408L403.777 117.122C413.915 111.979 421.524 99.3924 421.864 87.2067L422.035 81.0769L424.736 85.7979C426.222 88.3949 429.502 92.3338 432.026 94.5516ZM133.632 96.121C140.304 102.351 146.357 104.962 155.487 105.552L162.785 106.024L157.939 108.787C147.877 114.523 141.13 125.218 140.007 137.21C139.382 143.895 139.376 143.908 137.891 141.048C132.174 130.025 118.438 121.734 105.854 121.709L101.211 121.699L106.287 118.793C116.665 112.851 122.757 102.79 123.503 90.3574L123.978 82.4427L126.242 86.8884C127.487 89.3337 130.813 93.4881 133.632 96.121ZM354.91 104.009C361.011 114.309 371.485 120.758 383.348 121.517L390.673 121.987L385.743 124.797C380.15 127.986 374.534 134.081 371.584 140.165C369.263 144.95 367.213 154.936 367.859 158.308C368.104 159.584 368.183 160.627 368.038 160.627C367.892 160.627 366.406 158.213 364.738 155.263C359.149 145.377 348.758 138.995 336.595 137.977L329.306 137.366L333.811 135.081C343.844 129.99 351.456 117.537 351.784 105.675C351.873 102.426 352.048 99.7685 352.172 99.7685C352.296 99.7685 353.529 101.676 354.91 104.009ZM582.615 119.29C585.439 124.932 591.611 130.715 598.627 134.289C602.635 136.333 605.892 137.125 611.706 137.473L619.446 137.936L615.204 140.03C609.476 142.857 603.168 149.342 599.864 155.801C597.813 159.812 597.025 163.049 596.672 168.915L596.205 176.705L593.434 171.861C587.588 161.644 576.835 154.973 564.555 153.946L557.549 153.359L561.267 151.41C566.461 148.685 572.826 142.293 575.793 136.821C578.59 131.661 580.981 121.142 580.239 117.263C579.555 113.695 580.012 114.084 582.615 119.29ZM152.13 166.389C158.943 172.604 166.341 175.589 174.963 175.602L181.172 175.612L176.044 178.548C165.97 184.314 159.112 195.15 157.998 207.06L157.369 213.78L155.628 210.4C153.418 206.112 147.638 200.16 142.598 196.984C138.023 194.102 128.974 191.56 123.241 191.547L119.203 191.537L124.331 188.6C134.748 182.637 140.715 172.755 141.485 160.195L141.969 152.281L144.27 156.798C145.535 159.283 149.072 163.599 152.13 166.389ZM380.038 182.437C386.488 188.371 392.433 190.799 401.877 191.358L409.686 191.819L405.627 193.633C400.346 195.993 392.567 203.819 389.777 209.579C387.157 214.988 385.196 224.691 385.982 228.352C386.614 231.297 386.48 231.14 381.376 222.927C376.134 214.491 362.767 207.537 351.734 207.505L347.091 207.491L351.465 205.26C361.766 200.005 369.549 187.223 369.89 175.003L370.061 168.873L372.707 173.5C374.164 176.046 377.463 180.066 380.038 182.437ZM80.7104 183.176C87.0413 189.588 94.5476 192.951 103.549 193.406L110.885 193.778L106.001 196.562C95.957 202.289 89.1553 213.005 88.0478 224.852L87.4341 231.407L84.7045 227.195C78.1747 217.12 68.0496 210.933 56.3014 209.837L49.6766 209.22L54.5323 206.452C64.6723 200.671 70.7883 190.49 71.5289 178.159L72.0037 170.249L74.1796 174.507C75.377 176.849 78.3156 180.751 80.7104 183.176ZM600.607 189.128C603.43 194.77 609.602 200.553 616.619 204.127C620.627 206.171 623.883 206.963 629.697 207.311L637.437 207.774L633.196 209.868C627.467 212.695 621.159 219.179 617.855 225.639C615.804 229.65 615.016 232.887 614.664 238.753L614.196 246.543L611.377 241.615C605.776 231.826 594.774 224.898 583.101 223.811L576.534 223.198L580.754 220.514C591.075 213.95 597.528 202.983 597.802 191.542C597.893 187.718 598.049 184.586 598.148 184.581C598.247 184.576 599.353 186.622 600.607 189.128ZM309.546 199.88C316.398 206.277 322.246 208.745 331.911 209.316L339.72 209.777L335.661 211.591C330.38 213.952 322.601 221.777 319.811 227.537C317.261 232.802 315.226 242.619 315.911 246.353C316.327 248.627 316.251 248.709 315.244 247.067C306.322 232.503 298.435 227.155 283.849 225.776L277.579 225.185L281.726 223.085C287.609 220.108 295.079 211.559 297.544 204.983C298.851 201.498 299.631 196.993 299.661 192.765L299.707 186.068L302.064 190.581C303.359 193.063 306.727 197.247 309.546 199.88ZM170.122 236.227C176.931 242.44 184.332 245.426 192.954 245.443L199.163 245.455L194.666 248.008C188.943 251.256 185.34 254.689 181.681 260.382C178.541 265.266 175.699 274.633 175.635 280.31L175.595 283.841L174.025 280.848C171.186 275.439 162.642 267.635 156.59 264.924C153.305 263.452 147.942 262.06 144.219 261.713L137.648 261.101L141.797 259.002C144.079 257.848 147.876 254.763 150.236 252.146C156.61 245.075 158.953 239.499 159.498 230.104L159.961 222.119L162.261 226.636C163.526 229.121 167.063 233.437 170.122 236.227Z" fill="currentColor"/>
</svg>
