<svg width="122" height="20" viewBox="0 0 122 20" fill="none" xmlns="http://www.w3.org/2000/svg">
<g clip-path="url(#clip0_13015_117935)">
<path d="M75.1816 0.0380859H79.4684V3.69044H75.1816V0.0380859Z" fill="currentColor"/>
<path d="M81.1167 12.5068H85.4035V16.1634H81.1167V12.5068Z" fill="currentColor"/>
<path d="M33.081 9.75102V16.1336H29.0922V15.3578C28.2937 16.0325 27.2744 16.3971 26.2243 16.3838C23.8301 16.3838 21.9761 14.9593 21.9761 12.9286C21.9761 10.8088 24.0445 9.32495 26.7408 9.32495C27.5502 9.33882 28.3498 9.50201 29.0986 9.80613V9.75102C29.0986 8.80984 28.2562 8.26718 26.8116 8.26718C25.8921 8.26205 24.9841 8.46966 24.1602 8.87344L22.8442 6.34031C24.396 5.58568 26.0592 5.06845 27.9326 5.06845C30.7511 5.05362 33.081 6.78335 33.081 9.75102ZM29.0922 12.1739C28.5416 11.9084 27.9363 11.7727 27.3239 11.7775C26.5265 11.7775 25.9221 12.2163 25.9221 12.8247C25.9221 13.3885 26.4815 13.7871 27.2381 13.7871C29.0493 13.7786 29.0922 12.1739 29.0922 12.1739Z" fill="currentColor"/>
<path d="M46.1904 9.24025V16.1274H42.2251V10.1751C42.2251 9.1279 41.5349 8.39446 40.5425 8.39446C39.6166 8.39446 38.9478 9.08551 38.9478 10.05V16.1274H34.7832V5.06007H38.9457V6.3934C39.6359 5.5561 40.7569 5.05371 42.0943 5.05371C44.4864 5.05371 46.1904 6.78344 46.1904 9.24025Z" fill="currentColor"/>
<path d="M47.6072 19.105L48.441 16.4595C49.0669 16.822 49.7142 17.0785 50.0164 17.0785C50.2622 17.0795 50.5049 17.0241 50.7254 16.9167C50.946 16.8093 51.1383 16.6528 51.2874 16.4595L51.3517 16.3112L46.8506 5.13574H51.0988L53.3837 11.9381L55.5399 5.13574H59.7238L55.5142 16.2476C54.6097 18.6132 52.97 19.9995 51.0731 19.9995C49.862 19.9803 48.6734 19.6735 47.6072 19.105V19.105Z" fill="currentColor"/>
<path d="M75.2334 5.10254H79.3916V16.1253H75.2334V5.10254Z" fill="currentColor"/>
<path d="M88.6854 16.1273L80.9863 5.10449H85.3867L86.9814 7.38536L88.5782 5.10449H92.865L89.1162 10.4336L93.0858 16.1273H88.6854Z" fill="currentColor"/>
<path d="M101.481 12.5063L103.708 14.7321C102.741 15.7093 100.892 16.394 99.2305 16.394C95.7625 16.394 93.229 14.0453 93.229 10.7384C93.229 7.43159 95.7089 5.14648 99.0741 5.14648C102.564 5.14648 104.728 7.57786 104.728 11.7178H97.0335C97.3079 12.7374 98.0431 13.4136 99.0741 13.4136C99.9554 13.3808 100.801 13.062 101.481 12.5063V12.5063ZM97.0957 9.60647H100.838C100.585 8.71193 99.955 8.12264 99.0719 8.12264C98.0945 8.129 97.4022 8.71193 97.0957 9.60647Z" fill="currentColor"/>
<path d="M106.325 0H110.488V16.1272H106.325V0Z" fill="currentColor"/>
<path d="M112.1 14.7624L113.613 12.3289C114.665 13.0581 116.221 13.6008 117.377 13.6008C118.133 13.6008 118.408 13.4142 118.408 13.0602C118.408 12.7062 117.777 12.4773 116.768 12.2696C114.792 11.8456 112.584 11.375 112.584 8.83978C112.584 6.76029 114.286 5.13867 117.126 5.13867C118.745 5.16798 120.321 5.65893 121.666 6.55256L120.3 9.00513C119.396 8.42219 118.157 7.86257 117.126 7.86257C116.558 7.86257 116.178 8.15298 116.178 8.46459C116.178 8.81859 116.663 8.88854 117.756 9.13019C119.732 9.56686 122.002 10.2113 122.002 12.7486C122.002 14.9723 120.214 16.3862 117.272 16.3862C115.377 16.384 113.422 15.782 112.1 14.7624Z" fill="currentColor"/>
<path d="M14.7894 5.13605C10.9163 5.13605 10.6698 6.92937 10.6698 6.94633C10.6698 6.92301 9.92607 5.13605 6.62953 5.13605C4.56758 5.13605 4.15605 5.9458 4.16248 5.95004V5.05762H0V16.1101H4.16248C4.16248 16.1101 4.16248 9.86525 4.16248 9.9246C4.16248 8.72481 5.25132 8.1122 6.26301 8.1122C7.30898 8.1122 8.33781 8.80536 8.33781 9.85889C8.35925 9.90764 8.29923 16.1101 8.29923 16.1101H12.3503C12.3503 16.1101 12.3995 10.3168 12.3995 10.1917C12.3904 9.91782 12.4368 9.6449 12.536 9.38905C12.6352 9.1332 12.7852 8.89959 12.9772 8.70201C13.1692 8.50444 13.3993 8.34689 13.6538 8.23867C13.9084 8.13045 14.1823 8.07376 14.4594 8.07193C15.0278 8.07193 15.573 8.29526 15.975 8.69279C16.3769 9.09032 16.6028 9.6295 16.6028 10.1917C16.6028 10.3168 16.5706 16.1101 16.5706 16.1101H20.538V9.29079C20.538 6.85942 18.251 5.13605 14.7894 5.13605Z" fill="currentColor"/>
<path d="M73.8015 10.6855C73.8015 14.2212 71.2852 16.5996 68.2951 16.5996C66.8333 16.5996 66.096 16.1905 65.2193 15.4125V19.9997H61.1919V5.10624H65.2322V5.99654C66.1088 5.21647 66.8333 4.77344 68.2951 4.77344C71.2852 4.77344 73.8015 7.17301 73.8015 10.6855ZM70.1384 10.6855C70.1384 9.05961 69.0474 7.92977 67.5535 7.92977C66.1646 7.92977 64.9235 9.05113 64.9235 10.6855C64.9235 12.3198 66.1646 13.4412 67.5535 13.4412C69.0474 13.4327 70.1384 12.3346 70.1384 10.6855Z" fill="currentColor"/>
</g>
<defs>
<clipPath id="clip0_13015_117935">
<rect width="122" height="20" fill="white"/>
</clipPath>
</defs>
</svg>
