<svg width="348" height="143" viewBox="0 0 348 143" fill="none" xmlns="http://www.w3.org/2000/svg">
<path fill-rule="evenodd" clip-rule="evenodd" d="M226.374 6.6437L217.124 13.1897V17.5547C217.124 19.9557 217.462 21.9187 217.874 21.9167C218.286 21.9147 221.293 20.1387 224.556 17.9697C227.818 15.8007 230.855 14.2537 231.306 14.5317C231.756 14.8097 232.131 25.2487 232.139 37.7287C232.148 50.2087 232.485 60.9027 232.889 61.4927C234.309 63.5657 237.383 63.9797 239.765 62.4197L242.124 60.8737V37.3967C242.124 24.4847 242.462 13.9207 242.874 13.9227C243.286 13.9247 246.324 15.7237 249.624 17.9197C252.924 20.1157 255.961 21.9147 256.374 21.9167C256.787 21.9187 257.124 19.9577 257.124 17.5597V13.1997L247.374 6.5517C242.011 2.8957 237.174 -0.0522964 236.624 0.000703603C236.074 0.0547036 231.462 3.0437 226.374 6.6437ZM13.1607 25.0347C7.66366 26.7057 4.41266 29.5967 2.55266 34.4657C1.10166 38.2647 1.01566 39.6167 2.01366 42.9477C3.72166 48.6477 7.31266 51.4347 16.2927 54.0297C27.8827 57.3787 30.5287 60.6057 25.6687 65.4647C21.1917 69.9427 12.9927 68.2427 10.5197 62.3237C9.27666 59.3497 8.62666 58.8187 6.81766 59.3037C5.61066 59.6277 3.61166 59.8987 2.37366 59.9057C-2.95534 59.9387 1.43866 70.7997 8.14366 74.1677C13.0577 76.6367 24.9497 76.5597 29.9137 74.0257C36.0007 70.9197 37.4867 68.5797 37.9457 61.3787C38.3397 55.1807 38.2337 54.8307 34.9897 51.5947C32.6667 49.2797 29.1027 47.4017 23.4887 45.5357C14.3027 42.4827 11.5737 40.2477 12.5047 36.5377C13.9777 30.6677 26.2017 31.3987 27.7197 37.4477C28.3567 39.9837 28.6017 40.0757 33.0057 39.4197C35.5457 39.0417 37.8167 38.5437 38.0537 38.3127C38.2897 38.0827 37.6087 35.7837 36.5397 33.2047C35.2717 30.1457 33.4697 27.8577 31.3547 26.6227C27.5067 24.3757 18.0437 23.5497 13.1607 25.0347ZM40.1237 29.4197V33.9197H47.6237H55.1237V54.9197V75.9197H60.6237H66.1237V54.9197V33.9197H73.6237H81.1237V29.4197V24.9197H60.6237H40.1237V29.4197ZM92.6687 26.1237C82.9097 55.6867 77.1237 73.7957 77.1237 74.7767C77.1237 75.6527 78.6807 75.9337 82.3507 75.7217L87.5777 75.4197L89.6007 69.4197L91.6237 63.4197H99.9997H108.377L110.5 69.4197L112.624 75.4197L118.374 75.7197C122.61 75.9407 124.102 75.6777 124.04 74.7197C123.994 74.0047 120.056 62.6197 115.29 49.4197L106.624 25.4197L99.8597 25.1237C94.9957 24.9107 92.9757 25.1917 92.6687 26.1237ZM130.124 50.4197V75.9197H135.624H141.124V65.9197V55.9197H144.615C148.035 55.9197 148.207 56.1207 153.124 65.9197L158.142 75.9197H163.633C166.653 75.9197 169.124 75.5717 169.124 75.1467C169.124 74.7217 166.728 69.8197 163.8 64.2547L158.477 54.1357L161.688 51.2677C170.231 43.6387 167.669 28.8317 157.31 25.9547C155.283 25.3917 148.337 24.9287 141.874 24.9257L130.124 24.9197V50.4197ZM169.124 29.4197V33.9197H176.624H184.124V54.9197V75.9197H189.624H195.124V54.9197V33.9197H202.624H210.124V29.4197V24.9197H189.624H169.124V29.4197ZM262.357 50.0707L262.624 75.4197L267.874 75.7217L273.124 76.0247V67.4717V58.9197H279.412C291.9 58.9197 298.324 52.8297 298.324 40.9897C298.324 34.1277 296.397 30.1237 291.738 27.3087C289.204 25.7767 286.152 25.3607 275.357 25.0737L262.089 24.7227L262.357 50.0707ZM153.633 35.3027C154.905 36.2327 155.524 37.9117 155.524 40.4317C155.524 45.5467 152.51 47.9197 146.013 47.9197H141.124V40.9197V33.9197H146.433C149.374 33.9197 152.585 34.5367 153.633 35.3027ZM285.249 35.8197C287.081 37.3037 287.571 38.6397 287.485 41.9167C287.334 47.6857 284.82 50.0207 278.521 50.2457L273.624 50.4197L273.334 42.1697L273.043 33.9197H277.973C281.326 33.9197 283.653 34.5277 285.249 35.8197ZM103.212 45.4687C104.348 49.1457 105.516 52.7767 105.807 53.5367C106.223 54.6207 105.018 54.9197 100.231 54.9197C96.4377 54.9197 94.1237 54.5007 94.1237 53.8147C94.1237 53.2067 95.2997 48.8537 96.7367 44.1407C99.6607 34.5567 99.8537 34.5957 103.212 45.4687ZM90.1237 90.6147C84.7497 91.5097 81.3367 93.0877 78.6027 95.9417C76.2937 98.3517 75.6707 100.029 75.3287 104.76C74.9367 110.182 75.1347 110.863 78.0837 114.222C80.6287 117.12 82.9297 118.35 89.6357 120.395C98.7837 123.185 101.124 124.823 101.124 128.435C101.124 133.972 90.2117 136.099 85.5787 131.465C84.2287 130.115 83.1237 128.133 83.1237 127.061C83.1237 125.349 82.6027 125.175 78.8737 125.641C73.1527 126.357 72.5617 127.101 73.9737 131.814C75.5437 137.055 79.8687 140.518 86.5867 141.912C101.302 144.967 112.862 137.438 111.814 125.482C111.239 118.916 106.959 114.876 97.4737 111.946C88.3177 109.118 86.1237 107.569 86.1237 103.932C86.1237 100.498 88.3937 98.9197 93.3357 98.9197C97.3987 98.9197 101.124 101.338 101.124 103.977C101.124 105.558 101.822 105.917 104.874 105.905C110.181 105.883 111.477 104.805 110.662 101.092C109.713 96.7707 106.653 93.2357 102.858 92.0767C98.4327 90.7247 93.1247 90.1147 90.1237 90.6147ZM4.12366 116.368V141.92H9.64066H15.1577L14.8907 116.67L14.6237 91.4197L9.37366 91.1177L4.12366 90.8147V116.368ZM25.1237 116.42V141.92H30.1007H35.0777L35.3507 124.515L35.6237 107.109L45.0917 124.515L54.5587 141.92H60.8417H67.1237V116.42V90.9197H62.1467H57.1697L56.8967 108.407L56.6237 125.894L47.2567 108.407L37.8907 90.9197H31.5067H25.1237V116.42ZM114.124 95.4197V99.9197H121.124H128.124V120.92V141.92H133.604H139.083L139.354 121.17L139.624 100.42L146.874 100.126L154.124 99.8317V95.3757V90.9197H134.124H114.124V95.4197ZM160.124 116.368V141.92H165.641H171.158L170.891 116.67L170.624 91.4197L165.374 91.1177L160.124 90.8147V116.368ZM176.967 95.4197L176.61 99.9197H183.867H191.124V120.92V141.92H196.624H202.124V120.92V99.9197H209.624H217.124V95.4197V90.9197H197.225H177.325L176.967 95.4197ZM222.13 109.17C222.136 129.454 222.947 134.018 227.262 138.049C233.211 143.606 248.82 144.121 256.015 138.998C261.831 134.856 262.619 131.447 262.622 110.42L262.624 91.4197L257.435 91.1197L252.246 90.8197L251.935 109.844C251.637 128.103 251.532 128.961 249.346 131.145C245.86 134.627 238.754 134.354 235.537 130.614C233.175 127.868 233.124 127.42 233.124 109.364V90.9197H227.624H222.124L222.13 109.17ZM268.124 95.3757V99.8317L275.374 100.126L282.624 100.42L282.894 121.17L283.165 141.92H288.124H293.083L293.354 121.17L293.624 100.42L300.874 100.126L308.124 99.8317V95.3757V90.9197H288.124H268.124V95.3757ZM314.124 116.42V141.92H330.523H346.923L347.281 137.42L347.638 132.92H336.381H325.124V126.92V120.92H335.124H345.124V116.42V111.92H335.124H325.124V105.92V99.9197H335.624H346.124V95.4197V90.9197H330.124H314.124V116.42Z" fill="currentColor"/>
</svg>
